<svg width="1276" height="884" viewBox="0 0 1276 884" fill="none" xmlns="http://www.w3.org/2000/svg">
<path d="M83.6337 772.585C83.6337 772.585 80.5 760.506 80.7554 757.934C80.9875 755.362 89.0189 731.617 89.0189 731.617L93.731 724.774L105.639 708.493C105.639 708.493 114.251 693.314 114.808 691.913C115.365 690.512 124.673 674.897 124.673 674.897L127.482 668.421L129.71 654.918L141.757 653.678L146.26 654.161L155.267 657.146V641.324L160.838 633.884L167.314 626.696L171.84 620.427L173.674 607.177L172.351 598.106L169.774 594.616L170.401 589.15H167.082L164.087 591.079L158.191 588.186L155.429 575.165L151.994 573.466H146.446C146.446 573.466 141.711 567.128 138.206 563.615C134.701 560.101 130.244 557.667 130.244 557.667L124.673 558.562L119.427 558.838L125.091 545.06L122.212 533.348C122.212 533.348 117.779 528.09 117.524 524.944C117.268 521.797 118.94 512.888 118.94 512.888L118.731 504.529L114.785 497.387L116.734 493.988L122.143 492.013L127.18 489.465L117.57 476.444L120.17 472.334L129.455 469.991L133.981 468.338L136.975 463.745L136.349 458.9L137.788 452.998L138.623 450.656L134.283 446.844L128.758 441.815L125.601 436.005L120.796 431.596L116.595 430.953L111.163 432.882L108.564 433.18L103.132 429.529L99.7662 428.702L93.7542 429.874L88.485 431.848L85.6532 433.961L83.4248 434.834L79.8965 434.88L73.9078 432.997C73.9078 432.997 72.1668 432.491 71.2151 432.606C70.2634 432.721 67.478 434.053 66.8048 434.558C66.1549 435.086 64.0658 436.372 62.9284 436.533C61.8142 436.671 58.4948 436.258 58.4948 436.258C58.4948 436.258 54.6184 432.124 54.3398 431.343C54.0613 430.563 52.9007 424.408 52.9007 424.408L52.6918 415.82L51.8097 409.62C51.8097 409.62 52.274 408.357 50.9509 407.277C49.6046 406.198 45.1014 403.488 45.1014 403.488L40.134 398.138H31.0115L17.6181 395.313L9.79556 393.889C9.79556 393.889 7.82252 391.639 7.03331 391.409C6.24409 391.18 0 388.975 0 388.975V380.616L1.04455 377.034L0 373.865C0 373.865 1.36952 372.281 4.57281 371.66C7.7761 371.017 12.1632 370.466 14.6933 369.915C17.2235 369.364 20.5428 367.871 20.5428 367.871L22.0284 366.057C22.0284 366.057 19.2429 355.379 18.5234 353.565C17.8038 351.751 14.8094 340.039 13.7184 338.133C12.6275 336.227 6.29052 327.983 6.29052 327.983L15.1112 324.171L13.9738 319.395C13.9738 319.395 12.2793 318.04 15.2504 317.443C18.2216 316.846 20.3107 316.387 21.4017 316.111C22.4694 315.836 38.6948 312.552 38.6948 312.552C38.6948 312.552 43.1051 310.187 44.1729 309.268C45.2407 308.349 55.7094 299.095 55.7094 299.095L66.1781 301.598L71.4937 300.886C71.4937 300.886 85.0729 307.638 86.837 308.51C88.6011 309.383 97.0968 310.99 97.0968 310.99L102.482 311.082L111.697 315.009L121.121 317.925C121.121 317.925 132.31 317.581 133.702 317.788C135.095 317.994 145.425 319.234 146.539 319.234C147.653 319.234 152.876 319.579 152.876 319.579L163.345 324.516L171.051 322.702L176.924 323.505L186.441 322.977L189.551 322.702L191.896 319.739L189.226 313.631L197.559 305.525L202.573 300.427L203.803 294.043L200.368 285.96L199.741 284.1L203.084 278.979L203.827 256.359L209.607 258.679L219.797 255.051L222.791 249.93L227.294 257.37L231.124 251.767L233.91 249.953L235.465 246.99V230.87L240.966 251.285C240.966 251.285 247.582 246.875 247.976 246.577C248.371 246.278 250.576 240.469 250.576 240.469L237.925 211.833L246.305 213.325C246.305 213.325 247.86 210.753 249.137 210.685C250.414 210.616 254.638 210.363 254.638 210.363C254.638 210.363 259.35 207.607 260.116 206.941C260.906 206.298 263.227 204.324 263.227 204.324L265.061 197.297L264.318 190.867L250.553 193.76C250.553 193.76 240.688 197.228 237.693 198.675C234.699 200.121 225.205 205.15 225.205 205.15L210.93 204.324L208.794 207.217C208.794 207.217 208.516 207.998 206.566 207.722C204.616 207.447 201.227 207.171 198.906 206.666C196.584 206.161 190.364 204.071 190.364 204.071L187.16 202.992C187.16 202.992 185.512 197.343 186.487 196.975C187.462 196.608 212.624 187.147 212.624 187.147L222.211 183.702L227.944 189.236L234.397 186.664C234.397 186.664 236.347 182.6 238.808 181.704C241.268 180.809 251.458 178.65 252.549 178.42C253.64 178.191 261.579 176.928 261.579 176.928C261.579 176.928 267.73 176.4 269.541 176.583C271.351 176.767 281.031 177.961 283.607 178.214C286.184 178.466 308.421 181.452 308.421 181.452V171.21L301.573 167.582C301.573 167.582 297.767 159.636 299.577 160.141C301.388 160.67 309.93 161.634 309.93 161.634L313.11 153.574L309.442 147.396L307.121 136.718L303.314 129.645L302.455 119.381L291.615 109.851L300.97 101.377L313.156 99.9304L313.481 73.1547L314.828 70.1923L312.994 64.7499L318.495 57.9756L331.308 58.366C331.308 58.366 339.734 60.5016 341.173 61.3283C342.613 62.155 345.793 65.5077 345.793 65.5077C345.793 65.5077 347.371 68.516 347.975 69.6412C348.578 70.7664 350.923 73.4073 350.923 73.4073C350.923 73.4073 360.161 79.1941 360.37 80.4342C360.579 81.6742 361.716 88.3567 361.716 88.3567L372.556 88.6781C372.556 88.6781 379.404 82.7305 380.1 81.6742C380.797 80.6179 385.253 73.8206 385.253 73.8206C385.253 73.8206 388.016 73.0169 389.478 72.6035C390.94 72.1902 391.428 68.5849 396.001 68.7456C400.55 68.9064 404.288 69.0442 404.288 69.0442L432.746 56.1615C432.746 56.1615 433.558 48.882 432.746 47.7338C431.933 46.6086 442.263 43.6922 442.263 43.6922L444.979 45.1159C444.979 45.1159 452.314 41.0973 453.196 40.2706C454.078 39.4439 460.833 33.4044 460.833 33.4044L472.508 29.9369C472.508 29.9369 471.464 6.85831 472.508 6.00865C473.553 5.15899 483.557 0.0610352 483.557 0.0610352L490.428 0.359564L494.212 6.99609L497.554 8.14428L504.054 6.00865L519.234 21.0269L509.555 16.2275L502.963 11.3133L501.709 13.4259C501.709 13.4259 506.653 22.3818 507.211 23.2315C507.768 24.0811 517.586 34.277 517.586 34.277L529.587 44.6107L528.078 45.5982L520.906 41.6254L520.767 49.4331L525.711 52.1428C525.711 52.1428 533.464 55.4037 534.833 56.0467C536.203 56.6896 539.22 60.7083 539.22 60.7083L539.081 64.4055L532.233 71.5013L531.56 76.117L527.893 76.6222L510.53 91.319L510.483 92.9035C510.483 92.9035 511.574 94.8554 510.019 95.6132C508.464 96.371 505.516 97.1059 505.516 97.1059L499.04 99.5859L497.438 102.548L496.672 106.98C496.672 106.98 494.165 108.726 492.54 109.713L490.916 110.677L481.863 115.798L472.508 119.381L470.35 120.184L473.297 134.904L490.73 140.829L507.907 140.163L510.739 164.091L519.188 173.391C519.188 173.391 538.408 173.506 540.172 172.794C541.936 172.083 558.626 164.918 558.626 164.918H576.476V176.675L562.827 177.8L551.732 178.65L553.217 171.394L545.209 175.229L546.021 185.149L526.5 196.149V214.405H522.043V219.25H510.019L501.57 229.813C501.57 229.813 498.854 225.06 499.342 224.095C499.829 223.131 505.238 214.542 505.238 214.542L513.153 210.455L506.352 200.397L491.798 202.969L485.577 199.892L477.128 199.455L473.576 190.66C473.576 190.66 455.888 190.293 454.728 190.27C453.59 190.247 450.225 189.099 450.225 189.099L430.842 175.229L418.145 173.254L375.226 197.366L373.462 201.109L365.012 197.366L355.913 199.019L351.665 197.366L348.114 194.151L345.444 197.366V201.201L342.334 203.405V219.25L345.677 234.911L339.665 237.3L330.31 232.891V221.891L323.625 220.582L316.058 217.069V235.554L311.16 242.604V247.266L302.711 248.345L305.38 261.986L308.932 265.063L309.373 271.676L315.895 282.033L317.822 286.649L315.663 292.298L317.822 295.214L319.493 299.187V304.469L320.306 306.742L319.493 314.044L322.163 318.339H325.505L327.85 312.391L336.856 318.339L340.384 316.777L344.539 318.339L346.884 315.032L352.547 314.366L356.215 310.738L359.209 310.072L361.206 305.456L370.56 307.109C370.56 307.109 373.346 303.527 374.228 303.481C375.11 303.435 382.677 303.917 382.677 303.917C382.677 303.917 389.989 305.823 391.869 306.788C393.749 307.752 396.465 309.796 397.37 310.485C398.276 311.174 404.241 315.675 404.241 315.675L410.578 307.431C410.578 307.431 419.074 306.375 420.629 306.168C422.184 305.961 423.6 306.788 423.6 306.788L424.273 312.07L432.281 309.75L433.28 305.456L437.945 307.109L442.611 301.828C442.611 301.828 446.627 305.846 448.275 306.443C449.946 307.04 454.612 308.097 454.612 308.097L458.952 303.481L462.62 305.8L463.966 310.761L472.299 312.414L484.973 299.21L492.981 301.529L494.305 296.569C494.305 296.569 497.16 300.909 498.645 299.876C500.131 298.842 510.994 291.287 510.994 291.287L515.66 296.891L529.007 297.878L535.947 308.533C535.947 308.533 543.491 313.884 544.489 314.435C545.511 314.986 548.018 316.364 548.018 316.364L549.016 323.62L546.671 328.236L546.996 332.209L554.749 335.837L561.109 335.263L567.354 330.555L571.694 333.862L576.36 334.758L577.358 326.743L585.366 330.555L595.208 329.086L599.386 322.977V311.427L602.381 307.132L614.73 308.326C614.73 308.326 628.077 299.922 628.75 300.863C629.423 301.805 632.092 305.479 632.092 305.479L638.104 301.483V295.26C638.104 295.26 652.31 294.709 652.589 293.859C652.867 293.01 653.123 286.672 653.123 286.672L663.15 286.534L661.804 282.056L672.157 286.029L674.873 291.058L672.482 300.886L674.455 311.128L676.474 314.159L681.488 317.236L685.829 315.652C685.829 315.652 686.734 316.961 688.475 316.754C690.239 316.548 697.713 314.825 698.665 314.504C699.617 314.182 702.101 313.126 703.145 313.126C704.19 313.126 712.035 314.297 712.035 314.297L716.33 323.368L714.496 329.981L709.157 333.954L707.996 339.557L711.478 345.183L716.33 349.776L718.488 351.429L722.667 347.64H733.855L740.076 337.513L745.182 334.896L753.237 328.902L760.038 332.117L762.87 348.123C762.87 348.123 774.685 348.559 775.544 348.582C776.403 348.605 781.069 352.899 781.069 352.899L784.225 358.64L786.895 365.874C786.895 365.874 792.605 355.815 792.907 354.392C793.209 352.968 797.41 336.893 797.41 336.893L807.368 330.624C807.368 330.624 814.332 328.787 815.748 328.718C817.164 328.649 824.615 328.328 824.615 328.328V321.898L836.128 321.071L838.96 327.34L842.581 324.24L844.624 317.122L861.638 316.616L871.643 323.23L877.492 320.911L882.158 320.405L886.824 323.23L892.487 320.084L894.437 317.374L900.821 320.727C900.821 320.727 907.482 318.408 908.62 318.453C909.757 318.499 912.496 318.729 912.496 318.729L918.346 315.767L928.884 315.147L934.362 316.249L936.173 318.293L941.604 315.239L947.477 311.358C947.477 311.358 949.195 310.255 951.052 310.141C952.909 310.026 956.507 309.429 956.507 309.429C956.507 309.429 961.59 305.456 961.729 304.032C961.869 302.608 962.124 298.383 962.124 298.383L970.063 292.826L980.74 289.358H1000.49L999.589 300.588L984.733 306.857L994.737 311.472L994.064 324.355L992.393 328.649L996.734 329.315L999.565 334.275L1005.07 333.954L1011.1 338.156L1013.52 344.242L1014.75 349.133L1018.41 349.455V353.427L1020.57 355.563L1022.68 358.709C1022.68 358.709 1023.73 361.97 1023.73 363.646V366.953L1029.07 368.928V372.235L1033.41 374.875L1038.98 372.556L1041.39 374.439L1045.01 382.155C1045.01 382.155 1047.48 388.401 1047.61 389.228C1047.75 390.054 1047.43 396.324 1047.43 396.324L1047.66 397.426L1043.51 396.071L1039.1 392.351H1034.11C1034.11 392.351 1030.53 392.167 1030.76 393.338C1030.99 394.509 1031.51 398.069 1031.51 398.069L1026.12 401.95C1026.12 401.95 1024.75 404.522 1024.75 405.922C1024.75 407.323 1026.17 412.674 1026.17 412.674L1029.69 416.371L1033.76 421.4L1036.4 425.625L1036.22 429.437L1033.78 434.926L1036.03 437.36L1038.93 442.55L1041.28 445.971L1043.39 448.107L1044.62 459.175L1057.64 466.776L1061.98 465.284L1065.26 471.025L1073.33 474.699L1080.78 472.908L1090.86 472.219L1086.84 464.618L1090.86 456.374C1090.86 456.374 1092.99 458.923 1095.2 454.054C1097.4 449.209 1100.05 447.303 1100.05 447.303L1107.13 447.648L1112.08 451.551C1112.08 451.551 1120.43 456.006 1122.4 456.787C1124.38 457.545 1129.74 460.645 1131.62 462.092C1133.52 463.538 1136.42 465.904 1138.68 466.914C1140.93 467.925 1148.77 470.083 1149.79 470.359C1150.82 470.634 1157.01 474.263 1160.31 475.732C1163.61 477.202 1167.95 478.052 1169.92 478.419C1171.89 478.786 1178.72 480.049 1178.72 480.049L1189.65 486.433L1190 493.254L1188.91 504.207C1188.91 504.207 1192.16 511.739 1192.41 512.497C1192.67 513.255 1194.97 522.418 1194.97 522.418C1194.97 522.418 1194.11 522.578 1196.64 523.749C1199.17 524.921 1205.64 529.054 1205.64 529.054L1211.28 536.219C1211.28 536.219 1214.14 543.98 1214.67 545.473C1215.21 546.966 1216.95 551.053 1218.43 552.316C1219.92 553.579 1226.49 558.057 1226.49 558.057C1226.49 558.057 1230.6 561.387 1231.13 562.03C1231.66 562.673 1233.78 567.312 1233.78 567.312C1233.78 567.312 1232.2 570.389 1232.22 571.813C1232.22 573.236 1234.26 580.332 1234.87 581.595C1235.47 582.858 1237.33 589.426 1237.33 589.426C1237.33 589.426 1233.61 595.993 1234.29 597.004C1234.98 598.014 1237.33 602.308 1237.33 602.308L1243.27 603.319L1248.17 604.283L1249.33 606.603L1245.31 617.488C1245.31 617.488 1241.6 623.137 1240.97 623.963C1240.35 624.767 1236.77 629.888 1236.7 631.036C1236.63 632.184 1238.63 637.948 1239.3 639.854C1239.97 641.76 1242.32 651.29 1242.32 651.29C1242.32 651.29 1242.5 657.766 1244.9 657.33C1247.29 656.893 1261.14 661.853 1261.14 661.853V658.845L1265.35 661.073L1270.52 667.342C1270.52 667.342 1273.05 670.373 1273.45 671.889C1273.82 673.404 1273.89 680.224 1273.89 680.224C1273.89 680.224 1274.07 685.851 1273.89 688.4C1273.7 690.948 1269.55 692.74 1272.36 695.771C1275.16 698.802 1276 701.121 1276 701.121C1276 701.121 1273.17 702.43 1271.68 702.706C1270.2 702.982 1261.47 704.956 1261.47 704.956C1261.47 704.956 1255.5 707.896 1254.27 708.608C1253.04 709.32 1246.43 713.499 1245.73 714.142C1245.03 714.808 1240.3 722.271 1240.3 722.271C1240.3 722.271 1238.09 715.474 1237.03 713.453C1235.96 711.432 1231.36 706.748 1231.36 706.748L1225.72 701.833L1226.47 700.203L1226.12 698.664L1219.52 696.644L1213.49 696.184C1213.49 696.184 1212.07 696.184 1210.31 694.715C1208.55 693.268 1205.69 690.145 1205.69 690.145L1196.17 696.276C1196.17 696.276 1193.27 696.988 1191.83 697.149C1190.39 697.31 1185.66 697.631 1185.66 697.631L1186.05 695.243L1182.25 692.625L1177.93 694.186L1172.61 693.773L1169.9 692.579L1170.8 689.823L1167.06 688.836C1167.06 688.836 1164.49 689.203 1163.63 690.994C1162.77 692.786 1161.87 696.368 1161.45 697.195C1161.03 698.021 1159.43 698.067 1159.43 698.067L1155.2 693.452L1148.98 693.015L1148.05 695.564L1143.81 697.126C1143.81 697.126 1139.77 696.391 1138.58 695.61C1137.4 694.829 1135.45 694.301 1135.45 694.301L1130.53 699.17L1133.64 702.683L1134.22 707.574L1127.42 711.042L1122.73 711.914L1117.3 714.165L1113.24 716.622L1109.64 717.632L1105.65 716.576L1104.3 717.632L1100.07 722.478L1096.08 723.718L1092.02 724.085L1089.81 726.772L1087.4 729.068L1084.64 728.127C1084.64 728.127 1084.17 727.369 1082.5 727.759C1080.83 728.15 1077.98 729.114 1077.98 729.114C1077.98 729.114 1076.42 729.872 1075.4 730.837C1074.38 731.801 1071.64 734.672 1071.64 734.672C1071.64 734.672 1071.55 736.807 1071.13 738.024C1070.71 739.241 1060.38 742.824 1060.38 742.824L1055.16 742.273L1054.39 739.54L1046.48 737.198L1042.69 739.838L1039.54 740.596L1035.71 735.682L1034.89 734.12L1040.67 732.145C1040.67 732.145 1039.89 726.841 1041.12 726.634C1042.35 726.428 1044.39 727.116 1047.13 725.968C1049.87 724.82 1058.25 719.584 1058.25 719.584L1058.48 700.479L1042.02 697.585L1037.35 702.201C1037.35 702.201 1033.01 701.81 1030.69 701.466C1028.37 701.121 1025.66 700.754 1024.36 699.973C1023.06 699.193 1017.86 695.564 1017.86 695.564L1013.28 694.416L1007.3 695.174L1000.8 698.94L995.201 703.119L993.275 704.658L991.046 700.042C991.046 700.042 986.125 700.57 985.29 700.639C984.454 700.731 980.601 701.144 980.601 701.144L968.438 714.877L959.176 715.589L950.123 724.705L950.355 732.421L928.907 740.413L913.657 754.42L902.306 756.189L886.058 799.544L874.382 797.891L863.31 805.032L834.434 807.467L795.274 838.284L795.367 845.586L786.338 845.035L768.348 865.588L760.851 867.035L752.703 879.435L723.618 883.408L706.047 866.231L701.149 848.572C701.149 848.572 687.384 829.764 687.338 829.03C687.291 828.295 686.456 814.287 686.456 814.287L677.821 808.041L680.095 781.793L684.668 780.094L683.995 774.651C683.995 774.651 685.689 774.031 685.991 772.24C686.293 770.449 688.429 757.498 688.429 757.498L689.752 755.224L686.641 749.805L685.295 737.037L687.291 735.062L688.173 725.165L691.957 721.651L691.284 716.369C691.284 716.369 688.87 712.534 688.08 711.249C687.291 709.985 687.082 696.322 687.082 696.322L690.912 691.798L690.193 680.041C690.193 680.041 692.514 675.861 692.421 674.529C692.305 673.221 689.752 663.093 689.752 663.093L697.76 654.505C697.76 654.505 699.013 641.553 699.269 640.497C699.501 639.418 700.429 635.376 700.429 635.376L695.532 628.12C695.532 628.12 690.169 625.364 689.403 625.111C688.661 624.859 684.088 624.744 684.088 624.744C684.088 624.744 681.813 625.479 679.84 627.086C677.867 628.694 672.969 632.621 672.366 633.103C671.762 633.585 669 635.078 668.141 635.376C667.282 635.675 660.551 638.017 659.204 638.499C657.858 638.982 655.467 639.808 655.467 639.808L648.782 631.886L645.88 634.09C645.88 634.09 644.372 629.498 644.418 628.625C644.465 627.775 644.998 617.35 644.998 617.35L648.341 614.709L648.109 607.889L651.452 604.811L651.892 596.223L656.117 586.532L657.417 585.132L658.554 564.533L652.798 561.203L651.892 554.705L635.04 553.373C635.04 553.373 627.914 547.747 627.427 547.379C626.939 546.989 625.361 540.674 625.361 540.674L616.285 535.094L607.836 534.06L606.025 535.966L601.336 524.989C601.336 524.989 596.113 521.522 595.394 521.063C594.651 520.603 592.005 519.708 592.005 519.708L588.662 520.856C588.662 520.856 587.664 522.44 587.571 523.887C587.478 525.334 589.498 528.457 589.498 528.457L585.482 532.751L577.637 525.977L572.623 531.419L560.599 529.1L555.585 535.759L545.534 538.24L545.255 542.626L546.741 544.302L541.24 552.89L533.719 554.153V564.877L524.713 575.005L520.767 586.44C520.767 586.44 519.374 595.052 519.327 595.879C519.281 596.728 519.049 600.563 519.049 600.563L509.532 604.191L507.002 607.866L504.866 610.966L499.527 613.767L497.02 614.594L495.86 621.759C495.86 621.759 492.517 625.387 491.844 626.145C491.171 626.903 484.996 633.585 484.996 633.585L481.654 630.623L481.329 636.41L473.808 639.556L473.646 642.702L468.144 640.222L466.148 644.677C466.148 644.677 466.844 655.998 466.868 656.847C466.914 657.697 466.961 658.891 466.961 658.891C466.961 658.891 474.342 659.81 476.663 660.43C478.984 661.05 479.913 662.129 479.913 662.129L483.859 668.421L486.296 674.438C486.296 674.438 487.178 674.598 487.016 676.734C486.853 678.87 486.343 684.496 486.343 684.496L487.852 686.471L489.36 689.341L488.014 691.844L485.67 694.554C485.67 694.554 483.418 697.516 483.047 698.182C482.675 698.848 482.884 701.833 482.884 701.833L483.673 706.587L477.499 708.24L475.34 711.868L476.083 714.716L470.837 715.818L470.373 716.966C470.373 716.966 469.467 718.367 469.676 720.939C469.885 723.488 470.373 726.29 470.373 726.29C470.373 726.29 465.243 726.336 464.384 726.405C463.525 726.473 456.956 725.899 456.956 725.899L446 720.158C446 720.158 439.245 717.081 438.41 716.966C437.574 716.852 431.91 715.359 431.91 715.359L428.707 708.516L427.616 706.908L423.275 708.057C423.275 708.057 416.451 711.019 415.453 712.052C414.454 713.086 413.039 714.739 412.389 715.52C411.739 716.324 409.533 718.85 409.533 718.85L402.825 717.357L394.701 716.645L390.244 718.505L374.042 717.678L360.765 717.747C360.765 717.747 359.465 722.891 359.186 723.764C358.908 724.636 357.584 727.231 356.772 728.219C355.96 729.206 352.896 732.995 352.896 732.995L350.412 737.22L342.566 745.832L338.272 750.057C338.272 750.057 338.202 753.387 338.225 754.214C338.225 755.063 338.411 761.195 338.411 761.195L340.407 765.259L340.732 768.681L339.502 771.092L341.707 773.48L343.147 776.833L343.843 783.194L344.075 788.59L352.965 789.463L347.185 799.59L345.746 803.77L338.295 803.287L322.952 819.591L298.904 805.744L291.453 794.515L283.816 787.19L273.092 776.902L260.743 774.031L263.854 785.49L254.801 782.597L250.669 778.509C250.669 778.509 248.417 777.729 247.675 781.885C246.955 786.041 248.278 791.989 248.278 791.989L242.614 788.912L238.459 779.864L237.043 786.363L225.135 785.927L220.238 793.849L217.243 802.001L210.396 803.792C210.396 803.792 206.775 803.241 204.662 805.423C202.55 807.581 199.207 810.475 199.207 810.475L186.464 811.83L181.079 814.769L180.522 820.487C180.522 820.487 183.028 823.358 179.082 823.358C175.136 823.358 167.685 823.197 167.685 823.197L161.07 823.036C161.07 823.036 160.698 835.161 160.605 836.791C160.513 838.422 157.611 843.06 157.611 843.06L147.932 841.2L143.591 840.213L134.701 849.008C134.701 849.008 126.298 856.288 124.719 857.16C123.141 858.033 115.667 861.546 115.667 861.546L95.5183 842.073V832.382L85.0496 832.061L77.3664 828.547C77.3664 828.547 77.0182 813.988 76.1361 811.37C75.2541 808.776 76.0897 804.596 76.0897 804.596L82.0785 795.112L85.1889 786.064L83.3783 772.883L83.6337 772.585Z" fill="#E5E7EB"/>
</svg>
