<svg width="108" height="64" viewBox="0 0 108 64" fill="none" xmlns="http://www.w3.org/2000/svg">
<path d="M1.11024 56.8502C1.11024 57.5856 0 57.5856 0 56.8502C0 56.1148 1.11024 56.1244 1.11024 56.8502ZM0.983626 63.8701H0.116862V58.6362H0.983626V63.8701Z" fill="white"/>
<path d="M10.1797 61.2208C10.1797 57.5533 15.8575 57.5533 15.8575 61.2208C15.8575 64.8884 10.1797 64.8884 10.1797 61.2208ZM14.981 61.2208C14.981 58.5371 11.0562 58.5371 11.0562 61.2208C11.0562 63.9046 14.981 63.9142 14.981 61.2208Z" fill="white"/>
<path d="M29.1924 63.8759V60.7432C29.1924 59.7882 28.5691 59.196 27.6829 59.196C26.7967 59.196 26.076 59.8168 26.076 60.7051V63.8759H25.2092V60.1033C25.2092 59.387 25.1508 59.2056 24.5859 59.2629V58.5848C25.1995 58.4988 26.0273 58.3651 26.0273 59.387C26.5045 58.6707 27.1667 58.4893 27.9264 58.4893C29.3483 58.4893 30.0787 59.4539 30.0787 60.7432V63.8759H29.1924Z" fill="white"/>
<path d="M40.8694 58.6176H42.8464V59.2384H40.8694V61.8267C40.8694 63.1734 41.7167 63.5554 43.012 63.0874L43.1094 63.775C41.2687 64.3576 39.993 63.8419 39.993 61.8458V59.2384L38.8438 59.1811V58.6081H40.0514L40.139 56.9653H40.8694V58.6081V58.6176Z" fill="white"/>
<path d="M54.556 58.4134C55.0235 58.4134 55.452 58.5471 55.822 58.8049L55.6078 59.5308C55.2669 59.3111 54.8774 59.1774 54.4683 59.1774C53.699 59.1774 52.9783 59.7505 52.9783 60.5814V63.8669H52.1213V59.8269C52.1213 59.3398 52.1115 59.0533 51.4688 59.101V58.528C52.2966 58.3847 52.8906 58.4707 52.9199 59.2825C53.2218 58.633 53.8353 58.4038 54.5463 58.4038L54.556 58.4134Z" fill="white"/>
<path d="M66.0404 63.9619C65.047 63.9619 64.1705 63.3889 64.1413 62.3287C64.1121 61.1253 65.0762 60.495 66.1962 60.495C66.8097 60.495 67.5109 60.6382 68.0563 60.9343V60.2849C68.0563 59.3967 67.0922 59.1579 66.3617 59.1579C65.7482 59.1579 65.1736 59.282 64.7159 59.5399L64.5698 58.8618C65.0957 58.5944 65.7774 58.4702 66.4883 58.4702C67.7057 58.4702 68.8744 58.9287 68.8452 60.3135V62.5198C68.8452 63.1024 68.816 63.4366 69.4685 63.3507V63.9142C68.5822 64.0574 68.1634 63.8951 68.1634 62.9305C67.7739 63.6659 66.8584 63.9715 66.0404 63.9715V63.9619ZM68.0368 61.5838C67.5499 61.3068 66.8876 61.154 66.3423 61.154C65.6313 61.154 64.9691 61.536 64.9983 62.2905C65.0275 62.9591 65.5924 63.2265 66.1962 63.2265C66.8974 63.2265 67.8615 62.8731 68.0368 62.09V61.5838Z" fill="white"/>
<path d="M80.1395 63.914L77.5781 58.6898V58.5942H78.5326L79.448 60.5808L80.344 62.6342L81.24 60.5522L82.1262 58.6038H83.0611V58.6993L80.5095 63.9236H80.1395V63.914Z" fill="white"/>
<path d="M96.5816 61.3164H92.3062C92.2478 62.5293 93.2314 63.2743 94.4488 63.2743C95.0623 63.2743 95.6467 63.1406 96.27 62.8922L96.4063 63.5417C95.7733 63.8378 95.0915 63.9906 94.4293 63.9906C92.6373 63.9906 91.381 62.8827 91.4395 61.0871C91.4979 59.4157 92.725 58.4702 94.1956 58.4702C96.0265 58.4798 96.8835 59.5781 96.5913 61.3164H96.5816ZM92.3354 60.6574H95.8414C95.8999 59.6641 95.15 59.1483 94.1858 59.1483C93.2217 59.1483 92.4718 59.7118 92.3354 60.6574Z" fill="white"/>
<path d="M106.613 55.8477V61.9697C106.613 63.0012 106.837 63.3641 107.967 63.2209L107.996 63.899C106.35 64.1569 105.727 63.6029 105.727 61.9697V55.8477H106.613Z" fill="white"/>
<path d="M73.3473 0.169549C73.3473 0.169549 69.7731 0.655938 66.2086 2.1628C62.9266 3.55522 60.0147 4.80459 60.0147 4.80459C60.0147 4.80459 50.7919 -1.9763 42.2411 2.10558C33.6904 6.18747 34.8104 17.7178 34.8104 17.7178C34.8104 17.7178 29.2007 24.9375 14.7969 21.5613C14.7969 21.5613 17.5432 33.826 34.226 33.826C50.9088 33.826 53.0903 19.5585 58.3396 13.4261C58.8071 12.873 59.3135 12.3198 59.8491 11.7571C60.2095 13.3022 60.3653 14.79 60.2387 16.0107C60.2192 16.1538 60.1997 16.2968 60.1803 16.4399C60.2776 16.9549 60.4432 17.3554 60.8522 17.9086C62.5663 20.2357 63.472 20.0735 62.4494 21.0177C61.4268 21.9619 60.7354 22.1431 60.7354 22.1431C60.7354 22.1431 60.6575 22.5246 60.8425 22.887C61.0373 23.2494 61.8943 23.7835 61.5437 24.2603C61.1834 24.7372 60.151 25.0424 60.151 25.0424C60.151 25.0424 61.1249 25.6241 61.047 26.3299C60.9691 27.0452 59.4985 26.4729 59.3427 27.894C59.294 28.3708 60.2679 29.7251 59.6349 30.4881C59.1479 31.0794 58.7584 31.4036 56.5087 31.4895C55.2718 31.5371 52.8274 31.1175 51.5516 34.1503C51.4152 35.9051 52.3307 37.5455 52.3307 37.5455C52.3307 37.5455 58.1156 32.2143 65.1276 38.814C72.1396 45.4137 79.3172 43.4109 79.3172 43.4109C82.4434 42.8958 84.362 41.6942 84.362 41.6942C84.362 41.6942 82.7453 41.9994 78.8692 40.7977C74.9931 39.596 72.4318 36.6204 72.4318 36.6204C72.4318 36.6204 76.6488 37.8889 81.6546 37.0591C97.4414 34.4364 100.694 20.7602 100.694 20.7602C100.694 20.7602 92.2505 24.8039 82.0149 23.1731C72.0423 21.5804 64.9913 15.1619 61.5924 10.0214C68.0785 17.3459 73.3473 17.3459 73.3473 17.3459C73.3473 17.3459 75.5872 15.9439 78.8692 9.67805C82.609 2.53475 78.9082 0.551034 77.0773 0.169549C75.2464 -0.211936 73.3473 0.169549 73.3473 0.169549Z" fill="white"/>
</svg>
