<svg width="106" height="64" viewBox="0 0 106 64" fill="none" xmlns="http://www.w3.org/2000/svg">
<g clip-path="url(#clip0_4041_21661)">
<path d="M1.08384 56.8603C1.08384 57.5942 0 57.5942 0 56.8603C0 56.1264 1.08384 56.1361 1.08384 56.8603ZM0.962333 63.8736H0.111786V58.644H0.962333V63.8736Z" fill="#4C485B"/>
<path d="M9.96875 61.2297C9.96875 57.565 15.5289 57.565 15.5289 61.2297C15.5289 64.8943 9.96875 64.8943 9.96875 61.2297ZM14.6735 61.2297C14.6735 58.5468 10.8339 58.5468 10.8339 61.2297C10.8339 63.9125 14.6735 63.9223 14.6735 61.2297Z" fill="#4C485B"/>
<path d="M28.5845 63.8737V60.7437C28.5845 59.7911 27.9721 59.203 27.1069 59.203C26.2418 59.203 25.5322 59.8251 25.5322 60.7145V63.8786H24.6768V60.1119C24.6768 59.4023 24.6233 59.2127 24.0644 59.271L24.0547 58.5906C24.6671 58.5031 25.4787 58.3719 25.4787 59.3877C25.9502 58.6781 26.5966 58.4885 27.3402 58.4885C28.7303 58.4885 29.4544 59.4509 29.4544 60.7437V63.8737H28.5893H28.5845Z" fill="#4C485B"/>
<path d="M40.0221 58.6247H41.9613V59.2468H40.0221V61.8276C40.0221 63.1739 40.8532 63.5579 42.1217 63.0864L42.2189 63.7766C40.4109 64.355 39.1666 63.8446 39.1666 61.8519V59.2468L38.0391 59.1934V58.6247H39.2201L39.3076 56.9819H40.0172V58.6247H40.0221Z" fill="#4C485B"/>
<path d="M53.4391 58.4253C53.9008 58.4253 54.3139 58.5565 54.6736 58.819L54.4646 59.5431C54.1244 59.3244 53.755 59.1932 53.3467 59.1932C52.5934 59.1932 51.8935 59.7618 51.8935 60.593V63.8736H51.0527V59.8347C51.0527 59.3536 51.0429 59.0571 50.416 59.1106L50.4062 58.5419C51.2276 58.401 51.806 58.4885 51.84 59.2953C52.1365 58.6488 52.7392 58.4204 53.4391 58.4204V58.4253Z" fill="#4C485B"/>
<path d="M64.6671 63.9611C63.695 63.9611 62.8396 63.3925 62.8056 62.3281C62.7715 61.1227 63.7242 60.5006 64.8177 60.5006C65.4204 60.5006 66.1106 60.6416 66.6355 60.938V60.2916C66.6355 59.4071 65.6926 59.164 64.9733 59.164C64.3706 59.164 63.8117 59.2855 63.3645 59.548L63.2236 58.8676C63.7387 58.6051 64.4046 58.4739 65.1045 58.4739C66.2952 58.4739 67.4471 58.9356 67.4131 60.3111V62.5128C67.4131 63.0911 67.3791 63.4314 68.0255 63.3439L68.0352 63.9028C67.1604 64.0437 66.7424 63.8834 66.7424 62.9162C66.3584 63.6501 65.4641 63.9563 64.6622 63.9563L64.6671 63.9611ZM66.6257 61.5844C66.1446 61.3123 65.4982 61.1567 64.9635 61.1567C64.2637 61.1567 63.6172 61.5407 63.6513 62.294C63.6853 62.9599 64.2296 63.2224 64.8226 63.2224C65.5127 63.2224 66.4556 62.8724 66.6257 62.0851V61.5796V61.5844Z" fill="#4C485B"/>
<path d="M78.4923 63.9175L75.9844 58.6975V58.6003H76.9127L77.8118 60.5833L78.6867 62.6295L79.5615 60.5493L80.4267 58.6003H81.3452V58.6975L78.8519 63.9175H78.4923Z" fill="#4C485B"/>
<path d="M94.5827 61.3269H90.3932C90.3397 62.5419 91.3021 63.2856 92.4928 63.2856C93.0955 63.2856 93.6641 63.1543 94.2765 62.9016L94.4078 63.548C93.7856 63.8445 93.1149 63.9952 92.4685 63.9952C90.7188 63.9952 89.4795 62.8919 89.5329 61.0936C89.5864 59.4314 90.7917 58.4788 92.2352 58.4788C94.0287 58.4885 94.8744 59.582 94.5779 61.322L94.5827 61.3269ZM90.4223 60.6707H93.8586C93.912 59.6744 93.1781 59.1592 92.2401 59.1592C91.302 59.1592 90.5633 59.7181 90.4223 60.6707Z" fill="#4C485B"/>
<path d="M104.407 55.8542V61.9733C104.407 63.0037 104.626 63.3634 105.734 63.2224L105.768 63.9029C104.159 64.1653 103.547 63.6064 103.547 61.9782V55.8591H104.412L104.407 55.8542Z" fill="#4C485B"/>
<path d="M71.8366 0.170161C71.8366 0.170161 68.3372 0.656188 64.8475 2.16773C61.63 3.56263 58.7819 4.81172 58.7819 4.81172C58.7819 4.81172 49.7467 -1.97322 41.3773 2.10941C33.003 6.19689 34.1063 17.7303 34.1063 17.7303C34.1063 17.7303 28.6094 24.9527 14.5 21.5748C14.5 21.5748 17.1877 33.8421 33.5279 33.8421C49.8682 33.8421 52.0067 19.5772 57.1391 13.4436C57.6009 12.8943 58.0966 12.3354 58.6215 11.7716C58.9763 13.3123 59.1318 14.8093 59.0006 16.0292C58.986 16.175 58.9617 16.316 58.9423 16.4618C59.0346 16.977 59.2047 17.3755 59.6033 17.9296C61.2801 20.2576 62.1695 20.0973 61.1634 21.0401C60.1574 21.983 59.4818 22.1629 59.4818 22.1629C59.4818 22.1629 59.404 22.542 59.5887 22.9065C59.7734 23.271 60.6239 23.8056 60.2691 24.2819C59.9192 24.7583 58.9083 25.0596 58.9083 25.0596C58.9083 25.0596 59.8609 25.6428 59.7831 26.3524C59.7053 27.062 58.2667 26.4982 58.1112 27.9223C58.0577 28.3986 59.0152 29.7498 58.3979 30.5177C57.9216 31.1155 57.5425 31.4265 55.3408 31.514C54.1258 31.5626 51.7345 31.1398 50.4854 34.1775C50.3493 35.9369 51.2485 37.5699 51.2485 37.5699C51.2485 37.5699 56.9156 32.2382 63.7831 38.8385C70.6507 45.4387 77.6786 43.4314 77.6786 43.4314C80.7406 42.9114 82.6167 41.7109 82.6167 41.7109C82.6167 41.7109 81.0322 42.0171 77.2315 40.8117C73.4356 39.6064 70.9326 36.6367 70.9326 36.6367C70.9326 36.6367 75.0638 37.9053 79.9678 37.0742C95.4332 34.4545 98.6167 20.7728 98.6167 20.7728C98.6167 20.7728 90.3493 24.8166 80.3275 23.1835C70.5583 21.5942 63.6567 15.1738 60.3226 10.0219C66.675 17.3415 71.8317 17.3463 71.8317 17.3463C71.8317 17.3463 74.0286 15.9466 77.2412 9.67684C80.901 2.53225 77.2801 0.554122 75.4866 0.170161C73.6932 -0.2138 71.8317 0.170161 71.8317 0.170161" fill="#4C485B"/>
<path d="M98.6218 20.7728C98.6218 20.7728 90.3545 24.8166 80.3326 23.1835C70.3108 21.5505 63.3023 14.8336 60.0702 9.62338C56.8381 4.41317 54.3545 3.4314 54.3545 3.4314C56.9596 5.49215 59.4189 12.1459 59.0058 16.0195C58.9912 16.1653 58.9669 16.3062 58.9475 16.4521C59.0398 16.9672 59.2099 17.3658 59.6084 17.9199C61.2852 20.2479 62.1747 20.0875 61.1686 21.0304C60.1625 21.9733 59.4869 22.1531 59.4869 22.1531C59.4869 22.1531 59.4092 22.5322 59.5939 22.8968C59.7786 23.2613 60.6291 23.7959 60.2743 24.2722C59.9244 24.7485 58.9134 25.0499 58.9134 25.0499C58.9134 25.0499 59.866 25.6331 59.7883 26.3427C59.7105 27.0523 58.2719 26.4885 58.1163 27.9126C58.0629 28.3889 59.0204 29.74 58.4031 30.5079C57.9268 31.1058 57.5477 31.4168 55.346 31.5043C54.1309 31.5529 51.7397 31.1301 50.4906 34.1677C50.3545 35.9271 51.2536 37.5602 51.2536 37.5602C51.2536 37.5602 56.9207 32.2285 63.7883 38.8287C70.6558 45.429 77.6838 43.4217 77.6838 43.4217C80.7457 42.9016 82.6218 41.7011 82.6218 41.7011C82.6218 41.7011 81.0374 42.0073 77.2366 40.802C73.4408 39.5966 70.9377 36.627 70.9377 36.627C70.9377 36.627 75.069 37.8956 79.973 37.0644C95.4383 34.4448 98.6218 20.7631 98.6218 20.7631V20.7728Z" fill="#4C485B"/>
<path d="M14.5 21.5748C14.5 21.5748 17.1877 33.8421 33.5279 33.8421C49.8682 33.8421 52.0067 19.5772 57.1391 13.4436C62.2764 7.30504 71.8366 0.170166 71.8366 0.170166C71.8366 0.170166 67.9872 0.59787 64.8475 2.16774C61.7078 3.7376 58.7819 4.81172 58.7819 4.81172C58.7819 4.81172 49.7467 -1.97321 41.3773 2.10941C33.003 6.1969 34.1063 17.7303 34.1063 17.7303C34.1063 17.7303 28.6094 24.9527 14.5 21.5748Z" fill="#F6D357"/>
<path d="M60.3203 10.0219C60.3203 10.0219 63.5864 6.83847 66.2207 4.67079C68.8549 2.50311 71.8391 0.175044 71.8391 0.175044C71.8391 0.175044 73.7055 -0.208917 75.4941 0.175044C77.2826 0.559005 80.9084 2.53713 77.2486 9.68173C74.036 15.9515 71.8391 17.3512 71.8391 17.3512C71.8391 17.3512 66.6775 17.3512 60.3252 10.0219H60.3203Z" fill="#E8A603"/>
</g>
<defs>
<clipPath id="clip0_4041_21661">
<rect width="105.769" height="64" fill="white"/>
</clipPath>
</defs>
</svg>
