<svg width="108" height="64" viewBox="0 0 108 64" fill="none" xmlns="http://www.w3.org/2000/svg">
<g clip-path="url(#clip0_4601_28903)">
<path d="M1.1067 56.8603C1.1067 57.5942 0 57.5942 0 56.8603C0 56.1264 1.1067 56.1361 1.1067 56.8603ZM0.98263 63.8736H0.114144V58.644H0.98263V63.8736Z" fill="#4C485B"/>
<path d="M10.1797 61.2294C10.1797 57.5648 15.8571 57.5648 15.8571 61.2294C15.8571 64.8941 10.1797 64.8941 10.1797 61.2294ZM14.9837 61.2294C14.9837 58.5466 11.0631 58.5466 11.0631 61.2294C11.0631 63.9123 14.9837 63.922 14.9837 61.2294Z" fill="#4C485B"/>
<path d="M29.1878 63.8735V60.7434C29.1878 59.7908 28.5625 59.2027 27.6791 59.2027C26.7958 59.2027 26.0712 59.8249 26.0712 60.7143V63.8783H25.1977V60.1116C25.1977 59.402 25.1431 59.2125 24.5724 59.2708L24.5625 58.5904C25.1878 58.5029 26.0166 58.3716 26.0166 59.3874C26.498 58.6778 27.158 58.4883 27.9173 58.4883C29.3367 58.4883 30.0761 59.4506 30.0761 60.7434V63.8735H29.1928H29.1878Z" fill="#4C485B"/>
<path d="M40.8686 58.6242H42.8487V59.2463H40.8686V61.8271C40.8686 63.1734 41.7172 63.5574 43.0125 63.0859L43.1117 63.7761C41.2656 64.3545 39.9951 63.8441 39.9951 61.8514V59.2463L38.8438 59.1929V58.6242H40.0497L40.139 56.9814H40.8636V58.6242H40.8686Z" fill="#4C485B"/>
<path d="M54.5655 58.4248C55.037 58.4248 55.4588 58.556 55.8261 58.8185L55.6127 59.5426C55.2653 59.3239 54.8881 59.1927 54.4712 59.1927C53.702 59.1927 52.9874 59.7614 52.9874 60.5925V63.8731H52.1288V59.8343C52.1288 59.3531 52.1189 59.0566 51.4787 59.1101L51.4688 58.5414C52.3075 58.4005 52.898 58.488 52.9328 59.2948C53.2355 58.6484 53.8509 58.4199 54.5655 58.4199V58.4248Z" fill="#4C485B"/>
<path d="M66.0345 63.9609C65.0419 63.9609 64.1685 63.3922 64.1337 62.3278C64.099 61.1225 65.0717 60.5004 66.1883 60.5004C66.8037 60.5004 67.5084 60.6413 68.0444 60.9378V60.2914C68.0444 59.4068 67.0816 59.1638 66.3471 59.1638C65.7317 59.1638 65.161 59.2853 64.7044 59.5478L64.5605 58.8673C65.0866 58.6049 65.7665 58.4736 66.4811 58.4736C67.697 58.4736 68.8732 58.9354 68.8384 60.3108V62.5125C68.8384 63.0909 68.8037 63.4311 69.4637 63.3436L69.4737 63.9026C68.5804 64.0435 68.1536 63.8831 68.1536 62.9159C67.7615 63.6498 66.8484 63.956 66.0295 63.956L66.0345 63.9609ZM68.0345 61.5842C67.5431 61.312 66.8831 61.1565 66.3372 61.1565C65.6226 61.1565 64.9625 61.5405 64.9972 62.2938C65.032 62.9597 65.5878 63.2221 66.1933 63.2221C66.898 63.2221 67.8608 62.8722 68.0345 62.0848V61.5793V61.5842Z" fill="#4C485B"/>
<path d="M80.1467 63.9172L77.5859 58.6973V58.6001H78.5338L79.4519 60.5831L80.3452 62.6293L81.2385 60.5491L82.1219 58.6001H83.0599V58.6973L80.514 63.9172H80.1467Z" fill="#4C485B"/>
<path d="M96.5799 61.3266H92.302C92.2474 62.5417 93.23 63.2853 94.4459 63.2853C95.0613 63.2853 95.6419 63.1541 96.2672 62.9014L96.4012 63.5478C95.766 63.8443 95.0811 63.9949 94.4211 63.9949C92.6345 63.9949 91.369 62.8916 91.4236 61.0933C91.4782 59.4311 92.7089 58.4785 94.1829 58.4785C96.0141 58.4882 96.8777 59.5818 96.5749 61.3218L96.5799 61.3266ZM92.3318 60.6705H95.8404C95.895 59.6741 95.1457 59.159 94.1878 59.159C93.23 59.159 92.4757 59.7179 92.3318 60.6705Z" fill="#4C485B"/>
<path d="M106.613 55.854V61.9731C106.613 63.0035 106.836 63.3631 107.968 63.2222L108.002 63.9026C106.36 64.1651 105.734 63.6061 105.734 61.9779V55.8589H106.618L106.613 55.854Z" fill="#4C485B"/>
<path d="M73.3506 0.170161C73.3506 0.170161 69.7774 0.656188 66.2141 2.16773C62.9288 3.56263 60.0206 4.81172 60.0206 4.81172C60.0206 4.81172 50.7948 -1.97322 42.2489 2.10941C33.698 6.19689 34.8245 17.7303 34.8245 17.7303C34.8245 17.7303 29.2116 24.9527 14.8047 21.5748C14.8047 21.5748 17.5491 33.8421 34.234 33.8421C50.9188 33.8421 53.1025 19.5772 58.3431 13.4436C58.8146 12.8943 59.3208 12.3354 59.8568 11.7716C60.2191 13.3123 60.3779 14.8093 60.2439 16.0292C60.229 16.175 60.2042 16.316 60.1843 16.4618C60.2786 16.977 60.4523 17.3755 60.8593 17.9296C62.5714 20.2576 63.4796 20.0973 62.4523 21.0402C61.425 21.983 60.7352 22.1629 60.7352 22.1629C60.7352 22.1629 60.6558 22.542 60.8444 22.9065C61.033 23.271 61.9015 23.8056 61.5392 24.2819C61.1819 24.7583 60.1496 25.0596 60.1496 25.0596C60.1496 25.0596 61.1223 25.6428 61.0429 26.3524C60.9635 27.062 59.4945 26.4982 59.3357 27.9223C59.2811 28.3986 60.2588 29.7497 59.6285 30.5177C59.1422 31.1155 58.7551 31.4265 56.5069 31.514C55.2662 31.5626 52.8245 31.1398 51.5491 34.1775C51.4101 35.9369 52.3283 37.5699 52.3283 37.5699C52.3283 37.5699 58.1149 32.2382 65.1273 38.8385C72.1397 45.4387 79.3159 43.4314 79.3159 43.4314C82.4424 42.9114 84.358 41.7109 84.358 41.7109C84.358 41.7109 82.7402 42.0171 78.8593 40.8117C74.9834 39.6064 72.4275 36.6367 72.4275 36.6367C72.4275 36.6367 76.6459 37.9053 81.6533 37.0742C97.4449 34.4545 100.696 20.7728 100.696 20.7728C100.696 20.7728 92.2538 24.8166 82.0206 23.1835C72.0454 21.5942 64.9982 15.1738 61.5938 10.0219C68.0801 17.3415 73.3456 17.3463 73.3456 17.3463C73.3456 17.3463 75.5888 15.9466 78.8692 9.67684C82.6062 2.53225 78.9089 0.554122 77.0776 0.170161C75.2464 -0.2138 73.3456 0.170161 73.3456 0.170161" fill="#4C485B"/>
<path d="M100.7 20.7726C100.7 20.7726 92.2581 24.8163 82.0248 23.1833C71.7916 21.5502 64.6353 14.8333 61.335 9.62313C58.0348 4.41293 55.4988 3.43115 55.4988 3.43115C58.1588 5.49191 60.67 12.1456 60.2482 16.0192C60.2333 16.1651 60.2085 16.306 60.1886 16.4518C60.2829 16.967 60.4566 17.3655 60.8636 17.9196C62.5757 20.2477 63.4839 20.0873 62.4566 21.0302C61.4293 21.9731 60.7395 22.1529 60.7395 22.1529C60.7395 22.1529 60.6601 22.532 60.8487 22.8965C61.0373 23.261 61.9057 23.7957 61.5435 24.272C61.1861 24.7483 60.1539 25.0496 60.1539 25.0496C60.1539 25.0496 61.1266 25.6329 61.0472 26.3425C60.9678 27.0521 59.4988 26.4883 59.34 27.9123C59.2854 28.3886 60.2631 29.7398 59.6328 30.5077C59.1464 31.1055 58.7593 31.4166 56.5112 31.5041C55.2705 31.5527 52.8288 31.1298 51.5534 34.1675C51.4144 35.9269 52.3325 37.56 52.3325 37.56C52.3325 37.56 58.1191 32.2282 65.1315 38.8285C72.144 45.4287 79.3201 43.4214 79.3201 43.4214C82.4467 42.9014 84.3623 41.7009 84.3623 41.7009C84.3623 41.7009 82.7444 42.0071 78.8636 40.8017C74.9876 39.5964 72.4318 36.6268 72.4318 36.6268C72.4318 36.6268 76.6502 37.8953 81.6576 37.0642C97.4492 34.4445 100.7 20.7629 100.7 20.7629V20.7726Z" fill="#4C485B"/>
<path d="M14.8047 21.5745C14.8047 21.5745 17.5491 33.8419 34.234 33.8419C50.9188 33.8419 53.1025 19.577 58.3432 13.4433C63.5888 7.30479 73.3506 0.169922 73.3506 0.169922C73.3506 0.169922 69.4201 0.597625 66.2141 2.16749C63.0082 3.73736 60.0206 4.81148 60.0206 4.81148C60.0206 4.81148 50.7948 -1.97346 42.2489 2.10917C33.698 6.19665 34.8245 17.7301 34.8245 17.7301C34.8245 17.7301 29.2116 24.9524 14.8047 21.5745Z" fill="#F6D357"/>
<path d="M61.5938 10.0219C61.5938 10.0219 64.9287 6.83847 67.6186 4.67079C70.3084 2.50311 73.3555 0.175044 73.3555 0.175044C73.3555 0.175044 75.2612 -0.208917 77.0875 0.175044C78.9138 0.559005 82.6161 2.53713 78.8791 9.68173C75.5987 15.9515 73.3555 17.3512 73.3555 17.3512C73.3555 17.3512 68.0851 17.3512 61.5987 10.0219H61.5938Z" fill="#E8A603"/>
</g>
<defs>
<clipPath id="clip0_4601_28903">
<rect width="108" height="64" fill="white"/>
</clipPath>
</defs>
</svg>
