<svg width="1448" height="1012" viewBox="0 0 1448 1012" fill="none" xmlns="http://www.w3.org/2000/svg">
<path d="M94.9072 885.036C94.9072 885.036 91.3511 871.198 91.6409 868.252C91.9043 865.305 101.018 838.102 101.018 838.102L106.366 830.263L119.879 811.61C119.879 811.61 129.651 794.22 130.283 792.615C130.916 791.011 141.478 773.121 141.478 773.121L144.666 765.702L147.194 750.233L160.865 748.812L165.976 749.365L176.196 752.785V734.658L182.518 726.134L189.867 717.9L195.004 710.718L197.085 695.538L195.583 685.146L192.659 681.147L193.37 674.886H189.604L186.206 677.096L179.515 673.781L176.38 658.864L172.482 656.917H166.186C166.186 656.917 160.813 649.656 156.835 645.631C152.858 641.606 147.8 638.817 147.8 638.817L141.478 639.843L135.525 640.159L141.953 624.374L138.686 610.957C138.686 610.957 133.655 604.932 133.365 601.328C133.076 597.724 134.972 587.516 134.972 587.516L134.735 577.94L130.257 569.758L132.47 565.865L138.607 563.602L144.323 560.682L133.418 545.765L136.368 541.056L146.905 538.372L152.041 536.478L155.439 531.216L154.728 525.665L156.361 518.904L157.309 516.221L152.384 511.854L146.114 506.092L142.532 499.436L137.079 494.385L132.312 493.648L126.148 495.858L123.198 496.2L117.034 492.017L113.214 491.07L106.392 492.412L100.412 494.674L97.1989 497.095L94.6701 498.094L90.6663 498.147L83.8703 495.99C83.8703 495.99 81.8947 495.411 80.8147 495.542C79.7347 495.674 76.5738 497.2 75.8099 497.779C75.0723 498.384 72.7016 499.857 71.4109 500.041C70.1465 500.199 66.3797 499.725 66.3797 499.725C66.3797 499.725 61.9807 494.99 61.6647 494.096C61.3486 493.201 60.0315 486.15 60.0315 486.15L59.7944 476.311L58.7935 469.208C58.7935 469.208 59.3203 467.761 57.8188 466.524C56.2911 465.288 51.1809 462.184 51.1809 462.184L45.5439 456.054H35.1918L19.9929 452.818L11.116 451.187C11.116 451.187 8.87697 448.609 7.98137 448.345C7.08577 448.082 0 445.557 0 445.557V435.981L1.18535 431.876L0 428.246C0 428.246 1.55413 426.431 5.18921 425.72C8.82429 424.984 13.8028 424.352 16.674 423.721C19.5451 423.09 23.3119 421.379 23.3119 421.379L24.9978 419.301C24.9978 419.301 21.8368 407.068 21.0202 404.989C20.2037 402.911 16.8057 389.494 15.5676 387.31C14.3296 385.127 7.13845 375.682 7.13845 375.682L17.1481 371.315L15.8574 365.843C15.8574 365.843 13.9345 364.291 17.3061 363.607C20.6778 362.923 23.0485 362.396 24.2866 362.081C25.4982 361.765 43.9107 358.003 43.9107 358.003C43.9107 358.003 48.9155 355.293 50.1272 354.241C51.3389 353.188 63.2188 342.586 63.2188 342.586L75.0986 345.454L81.1308 344.638C81.1308 344.638 96.5404 352.373 98.5423 353.373C100.544 354.372 110.185 356.214 110.185 356.214L116.296 356.319L126.754 360.818L137.448 364.159C137.448 364.159 150.145 363.764 151.725 364.001C153.306 364.238 165.027 365.659 166.292 365.659C167.556 365.659 173.483 366.053 173.483 366.053L185.363 371.709L194.108 369.631L200.772 370.552L211.572 369.947L215.102 369.631L217.762 366.237L214.733 359.239L224.19 349.953L229.879 344.112L231.275 336.798L227.377 327.538L226.666 325.407L230.459 319.54L231.302 293.627L237.861 296.284L249.424 292.127L252.822 286.26L257.933 294.784L262.279 288.365L265.44 286.287L267.205 282.893V264.424L273.448 287.812C273.448 287.812 280.955 282.761 281.403 282.419C281.85 282.077 284.353 275.421 284.353 275.421L269.997 242.615L279.506 244.325C279.506 244.325 281.271 241.378 282.72 241.299C284.168 241.22 288.963 240.931 288.963 240.931C288.963 240.931 294.31 237.774 295.179 237.011C296.075 236.275 298.709 234.012 298.709 234.012L300.79 225.962L299.947 218.595L284.327 221.91C284.327 221.91 273.132 225.883 269.733 227.54C266.335 229.198 255.562 234.959 255.562 234.959L239.362 234.012L236.939 237.327C236.939 237.327 236.623 238.221 234.41 237.906C232.197 237.59 228.352 237.274 225.717 236.695C223.083 236.117 216.024 233.723 216.024 233.723L212.389 232.486C212.389 232.486 210.519 226.014 211.625 225.593C212.731 225.172 241.285 214.333 241.285 214.333L252.164 210.387L258.67 216.727L265.993 213.781C265.993 213.781 268.206 209.124 270.998 208.098C273.79 207.072 285.354 204.599 286.592 204.336C287.83 204.073 296.839 202.626 296.839 202.626C296.839 202.626 303.819 202.021 305.874 202.232C307.928 202.442 318.912 203.81 321.836 204.1C324.76 204.389 349.995 207.809 349.995 207.809V196.075L342.224 191.919C342.224 191.919 337.904 182.816 339.959 183.395C342.014 184 351.707 185.105 351.707 185.105L355.316 175.871L351.154 168.794L348.52 156.56L344.2 148.458L343.225 136.698L330.924 125.78L341.539 116.072L355.369 114.415L355.737 83.7392L357.265 80.3454L355.184 74.1104L361.427 66.3494L375.967 66.7967C375.967 66.7967 385.529 69.2434 387.162 70.1905C388.796 71.1376 392.404 74.9786 392.404 74.9786C392.404 74.9786 394.195 78.4249 394.88 79.714C395.565 81.0031 398.226 84.0286 398.226 84.0286C398.226 84.0286 408.709 90.6583 408.947 92.0789C409.184 93.4996 410.474 101.155 410.474 101.155L422.776 101.524C422.776 101.524 430.546 94.7097 431.336 93.4996C432.127 92.2894 437.184 84.5021 437.184 84.5021C437.184 84.5021 440.319 83.5814 441.978 83.1078C443.638 82.6343 444.191 78.5039 449.38 78.688C454.543 78.8722 458.784 79.03 458.784 79.03L491.078 64.2711C491.078 64.2711 492 55.9314 491.078 54.616C490.156 53.3269 501.878 49.9857 501.878 49.9857L504.96 51.6168C504.96 51.6168 513.284 47.0129 514.285 46.0658C515.286 45.1187 522.951 38.1996 522.951 38.1996L536.201 34.2271C536.201 34.2271 535.015 7.78725 536.201 6.81384C537.386 5.84044 548.739 0 548.739 0L556.536 0.342007L560.83 7.9451L564.623 9.26051L571.998 6.81384L589.225 24.0194L578.241 18.521L570.76 12.8911L569.338 15.3114C569.338 15.3114 574.948 25.5716 575.581 26.545C576.213 27.5184 587.355 39.1993 587.355 39.1993L600.974 51.038L599.261 52.1693L591.122 47.618L590.964 56.5628L596.575 59.6671C596.575 59.6671 605.372 63.4029 606.927 64.1395C608.481 64.8762 611.905 69.4801 611.905 69.4801L611.747 73.7158L603.976 81.845L603.213 87.133L599.051 87.7117L579.347 104.549L579.295 106.364C579.295 106.364 580.533 108.601 578.768 109.469C577.003 110.337 573.658 111.179 573.658 111.179L566.309 114.02L564.491 117.414L563.622 122.491C563.622 122.491 560.777 124.491 558.933 125.622L557.089 126.727L546.816 132.594L536.201 136.698L533.751 137.619L537.096 154.482L556.878 161.27L576.371 160.507L579.585 187.92L589.173 198.575C589.173 198.575 610.983 198.706 612.985 197.891C614.987 197.075 633.926 188.867 633.926 188.867H654.183V202.337L638.694 203.626L626.103 204.599L627.789 196.286L618.701 200.679L619.623 212.045L597.47 224.646V245.561H592.413V251.112H578.768L569.18 263.214C569.18 263.214 566.098 257.768 566.651 256.663C567.204 255.558 573.342 245.719 573.342 245.719L582.324 241.036L574.606 229.513L558.09 232.46L551.031 228.935L541.443 228.435L537.412 218.359C537.412 218.359 517.34 217.938 516.023 217.911C514.733 217.885 510.913 216.57 510.913 216.57L488.918 200.679L474.51 198.417L425.805 226.041L423.803 230.329L414.215 226.041L403.889 227.935L399.069 226.041L395.038 222.357L392.009 226.041V230.434L388.479 232.96V251.112L392.273 269.055L385.45 271.791L374.835 266.74V254.138L367.248 252.638L358.661 248.613V269.791L353.103 277.868V283.208L343.515 284.445L346.544 300.072L350.574 303.597L351.075 311.174L358.477 323.039L360.663 328.327L358.213 334.799L360.663 338.14L362.56 342.691V348.742L363.482 351.347L362.56 359.713L365.589 364.633H369.382L372.043 357.819L382.263 364.633L386.267 362.844L390.982 364.633L393.642 360.844L400.069 360.081L404.231 355.925L407.629 355.162L409.895 349.874L420.51 351.768C420.51 351.768 423.671 347.664 424.672 347.611C425.673 347.559 434.26 348.111 434.26 348.111C434.26 348.111 442.558 350.295 444.691 351.399C446.825 352.504 449.907 354.846 450.934 355.635C451.962 356.424 458.731 361.581 458.731 361.581L465.922 352.136C465.922 352.136 475.563 350.926 477.328 350.689C479.093 350.452 480.7 351.399 480.7 351.399L481.464 357.45L490.551 354.793L491.684 349.874L496.979 351.768L502.273 345.717C502.273 345.717 506.83 350.321 508.7 351.005C510.597 351.689 515.892 352.899 515.892 352.899L520.817 347.611L524.979 350.268L526.507 355.951L535.964 357.845L550.346 342.718L559.434 345.375L560.935 339.692C560.935 339.692 564.175 344.665 565.861 343.481C567.547 342.297 579.874 333.641 579.874 333.641L585.169 340.061L600.315 341.192L608.191 353.399C608.191 353.399 616.752 359.529 617.885 360.16C619.044 360.792 621.888 362.37 621.888 362.37L623.021 370.683L620.361 375.971L620.729 380.523L629.527 384.679L636.745 384.022L643.831 378.629L648.756 382.417L654.051 383.443L655.184 374.261L664.271 378.629L675.44 376.945L680.181 369.947V356.714L683.579 351.794L697.593 353.162C697.593 353.162 712.739 343.533 713.503 344.612C714.267 345.691 717.296 349.9 717.296 349.9L724.119 345.322V338.193C724.119 338.193 740.239 337.561 740.555 336.588C740.871 335.615 741.161 328.353 741.161 328.353L752.541 328.196L751.013 323.065L762.761 327.617L765.843 333.378L763.13 344.638L765.369 356.372L767.66 359.844L773.35 363.37L778.276 361.554C778.276 361.554 779.303 363.054 781.279 362.817C783.281 362.581 791.763 360.607 792.843 360.239C793.923 359.871 796.741 358.661 797.926 358.661C799.112 358.661 808.015 360.002 808.015 360.002L812.888 370.394L810.807 377.971L804.749 382.522L803.432 388.941L807.383 395.387L812.888 400.649L815.338 402.543L820.079 398.202H832.776L839.835 386.6L845.63 383.601L854.771 376.734L862.489 380.418L865.702 398.754C865.702 398.754 879.11 399.254 880.085 399.281C881.059 399.307 886.354 404.226 886.354 404.226L889.936 410.804L892.965 419.091C892.965 419.091 899.445 407.568 899.788 405.937C900.13 404.305 904.898 385.89 904.898 385.89L916.198 378.707C916.198 378.707 924.101 376.603 925.707 376.524C927.314 376.445 935.77 376.077 935.77 376.077V368.71L948.835 367.763L952.049 374.945L956.158 371.394L958.476 363.238L977.784 362.659L989.137 370.236L995.775 367.579L1001.07 367L1006.36 370.236L1012.79 366.632L1015 363.528L1022.25 367.369C1022.25 367.369 1029.81 364.711 1031.1 364.764C1032.39 364.817 1035.5 365.08 1035.5 365.08L1042.14 361.686L1054.09 360.976L1060.31 362.238L1062.37 364.58L1068.53 361.081L1075.19 356.635C1075.19 356.635 1077.14 355.372 1079.25 355.241C1081.36 355.109 1085.44 354.425 1085.44 354.425C1085.44 354.425 1091.21 349.874 1091.37 348.242C1091.53 346.611 1091.81 341.771 1091.81 341.771L1100.82 335.404L1112.94 331.431H1135.36L1134.33 344.296L1117.47 351.478L1128.82 356.766L1128.06 371.525L1126.16 376.445L1131.09 377.208L1134.3 382.89L1140.55 382.522L1147.39 387.337L1150.13 394.308L1151.53 399.912L1155.69 400.28V404.832L1158.14 407.278L1160.54 410.882C1160.54 410.882 1161.72 414.618 1161.72 416.539V420.327L1167.78 422.59V426.378L1172.71 429.404L1179.03 426.746L1181.77 428.904L1185.88 437.743C1185.88 437.743 1188.67 444.899 1188.83 445.846C1188.99 446.793 1188.62 453.975 1188.62 453.975L1188.88 455.238L1184.17 453.686L1179.16 449.424H1173.5C1173.5 449.424 1169.44 449.214 1169.71 450.555C1169.97 451.897 1170.55 455.975 1170.55 455.975L1164.44 460.421C1164.44 460.421 1162.88 463.367 1162.88 464.972C1162.88 466.577 1164.49 472.707 1164.49 472.707L1168.49 476.943L1173.1 482.704L1176.11 487.545L1175.9 491.912L1173.13 498.2L1175.69 500.988L1178.98 506.934L1181.64 510.854L1184.04 513.301L1185.43 525.981L1200.21 534.689L1205.13 532.979L1208.85 539.556L1218.02 543.766L1226.47 541.714L1237.9 540.924L1233.35 532.216L1237.9 522.771C1237.9 522.771 1240.33 525.692 1242.83 520.114C1245.33 514.563 1248.33 512.38 1248.33 512.38L1256.37 512.774L1261.98 517.247C1261.98 517.247 1271.46 522.351 1273.7 523.245C1275.94 524.113 1282.02 527.665 1284.16 529.322C1286.32 530.98 1289.61 533.689 1292.17 534.847C1294.72 536.005 1303.62 538.478 1304.78 538.793C1305.94 539.109 1312.98 543.266 1316.72 544.949C1320.46 546.633 1325.38 547.607 1327.62 548.027C1329.86 548.448 1337.6 549.895 1337.6 549.895L1350.01 557.209L1350.41 565.023L1349.17 577.572C1349.17 577.572 1352.86 586.201 1353.15 587.069C1353.44 587.937 1356.04 598.434 1356.04 598.434C1356.04 598.434 1355.07 598.618 1357.94 599.96C1360.81 601.302 1368.16 606.037 1368.16 606.037L1374.56 614.245C1374.56 614.245 1377.8 623.138 1378.41 624.848C1379.01 626.558 1380.99 631.241 1382.67 632.688C1384.36 634.134 1391.81 639.265 1391.81 639.265C1391.81 639.265 1396.48 643.079 1397.08 643.816C1397.69 644.552 1400.09 649.867 1400.09 649.867C1400.09 649.867 1398.29 653.392 1398.32 655.023C1398.32 656.654 1400.64 664.784 1401.32 666.231C1402.01 667.677 1404.12 675.202 1404.12 675.202C1404.12 675.202 1399.9 682.726 1400.66 683.883C1401.46 685.041 1404.12 689.961 1404.12 689.961L1410.86 691.118L1416.42 692.223L1417.73 694.88L1413.18 707.35C1413.18 707.35 1408.96 713.822 1408.25 714.769C1407.54 715.69 1403.48 721.557 1403.4 722.872C1403.33 724.188 1405.59 730.791 1406.35 732.975C1407.12 735.158 1409.78 746.076 1409.78 746.076C1409.78 746.076 1409.99 753.495 1412.7 752.995C1415.42 752.495 1431.14 758.178 1431.14 758.178V754.732L1435.91 757.283L1441.78 764.466C1441.78 764.466 1444.65 767.938 1445.1 769.675C1445.52 771.411 1445.6 779.224 1445.6 779.224C1445.6 779.224 1445.81 785.67 1445.6 788.59C1445.39 791.51 1440.68 793.562 1443.86 797.035C1447.05 800.508 1448 803.165 1448 803.165C1448 803.165 1444.79 804.665 1443.1 804.98C1441.41 805.296 1431.51 807.559 1431.51 807.559C1431.51 807.559 1424.74 810.926 1423.34 811.742C1421.95 812.557 1414.44 817.345 1413.65 818.082C1412.86 818.845 1407.49 827.395 1407.49 827.395C1407.49 827.395 1404.98 819.608 1403.77 817.293C1402.56 814.977 1397.35 809.611 1397.35 809.611L1390.94 803.981L1391.79 802.113L1391.39 800.35L1383.91 798.035L1377.06 797.509C1377.06 797.509 1375.46 797.509 1373.45 795.825C1371.45 794.168 1368.21 790.59 1368.21 790.59L1357.41 797.614C1357.41 797.614 1354.12 798.43 1352.49 798.614C1350.85 798.798 1345.48 799.166 1345.48 799.166L1345.93 796.43L1341.61 793.431L1336.71 795.22L1330.68 794.746L1327.59 793.378L1328.62 790.221L1324.38 789.09C1324.38 789.09 1321.46 789.511 1320.48 791.563C1319.51 793.615 1318.48 797.719 1318.01 798.666C1317.53 799.613 1315.71 799.666 1315.71 799.666L1310.92 794.378L1303.86 793.878L1302.81 796.798L1297.99 798.587C1297.99 798.587 1293.4 797.746 1292.06 796.851C1290.72 795.957 1288.5 795.352 1288.5 795.352L1282.92 800.929L1286.45 804.954L1287.11 810.558L1279.39 814.53L1274.07 815.53L1267.91 818.108L1263.3 820.923L1259.21 822.081L1254.68 820.87L1253.15 822.081L1248.36 827.632L1243.83 829.052L1239.22 829.473L1236.72 832.551L1233.98 835.182L1230.84 834.104C1230.84 834.104 1230.32 833.235 1228.42 833.683C1226.52 834.13 1223.28 835.235 1223.28 835.235C1223.28 835.235 1221.52 836.103 1220.36 837.208C1219.2 838.313 1216.09 841.601 1216.09 841.601C1216.09 841.601 1215.99 844.048 1215.51 845.442C1215.04 846.837 1203.32 850.941 1203.32 850.941L1197.39 850.31L1196.52 847.179L1187.54 844.495L1183.24 847.521L1179.66 848.389L1175.32 842.759L1174.39 840.97L1180.95 838.708C1180.95 838.708 1180.06 832.63 1181.45 832.394C1182.85 832.157 1185.17 832.946 1188.28 831.631C1191.38 830.315 1200.89 824.317 1200.89 824.317L1201.16 802.428L1182.48 799.114L1177.19 804.402C1177.19 804.402 1172.26 803.954 1169.63 803.56C1166.99 803.165 1163.91 802.744 1162.44 801.85C1160.96 800.955 1155.06 796.798 1155.06 796.798L1149.87 795.483L1143.07 796.351L1135.7 800.666L1129.35 805.454L1127.16 807.217L1124.64 801.929C1124.64 801.929 1119.05 802.534 1118.1 802.613C1117.15 802.718 1112.78 803.191 1112.78 803.191L1098.98 818.924L1088.47 819.739L1078.2 830.184L1078.46 839.023L1054.12 848.179L1036.81 864.227L1023.93 866.252L1005.49 915.922L992.245 914.028L979.68 922.21L946.912 924.999L902.475 960.304L902.58 968.67L892.333 968.039L871.919 991.585L863.411 993.242L854.165 1007.45L821.159 1012L801.219 992.321L795.661 972.09C795.661 972.09 780.041 950.544 779.988 949.702C779.935 948.86 778.987 932.812 778.987 932.812L769.188 925.656L771.77 895.586L776.959 893.639L776.195 887.404C776.195 887.404 778.118 886.694 778.46 884.642C778.803 882.59 781.226 867.752 781.226 867.752L782.728 865.147L779.198 858.939L777.67 844.311L779.935 842.049L780.936 830.71L785.23 826.685L784.466 820.634C784.466 820.634 781.727 816.24 780.831 814.767C779.935 813.32 779.698 797.667 779.698 797.667L784.045 792.484L783.228 779.014C783.228 779.014 785.862 774.226 785.757 772.7C785.625 771.201 782.728 759.599 782.728 759.599L791.815 749.759C791.815 749.759 793.238 734.921 793.527 733.711C793.791 732.475 794.844 727.844 794.844 727.844L789.287 719.531C789.287 719.531 783.202 716.374 782.332 716.085C781.49 715.795 776.3 715.664 776.3 715.664C776.3 715.664 773.719 716.506 771.48 718.347C769.241 720.189 763.683 724.688 762.998 725.24C762.313 725.792 759.179 727.502 758.204 727.844C757.229 728.186 749.59 730.87 748.063 731.422C746.535 731.975 743.822 732.922 743.822 732.922L736.235 723.846L732.943 726.371C732.943 726.371 731.231 721.11 731.283 720.11C731.336 719.136 731.942 707.193 731.942 707.193L735.735 704.167L735.472 696.353L739.265 692.828L739.765 682.989L744.559 671.887L746.034 670.282L747.325 646.683L740.792 642.869L739.765 635.424L720.641 633.898C720.641 633.898 712.555 627.452 712.002 627.031C711.448 626.584 709.657 619.349 709.657 619.349L699.358 612.956L689.77 611.772L687.715 613.956L682.394 601.381C682.394 601.381 676.467 597.408 675.651 596.882C674.808 596.356 671.805 595.33 671.805 595.33L668.012 596.645C668.012 596.645 666.879 598.46 666.774 600.118C666.668 601.775 668.96 605.353 668.96 605.353L664.403 610.273L655.5 602.512L649.81 608.747L636.165 606.09L630.476 613.719L619.07 616.56L618.754 621.585L620.44 623.506L614.197 633.345L605.662 634.792V647.078L595.442 658.68L590.964 671.781C590.964 671.781 589.383 681.647 589.331 682.594C589.278 683.568 589.015 687.961 589.015 687.961L578.215 692.118L575.344 696.327L572.92 699.879L566.862 703.088L564.017 704.036L562.7 712.244C562.7 712.244 558.907 716.4 558.143 717.269C557.379 718.137 550.372 725.792 550.372 725.792L546.579 722.399L546.21 729.028L537.676 732.633L537.491 736.237L531.248 733.396L528.983 738.499C528.983 738.499 529.773 751.469 529.8 752.443C529.852 753.416 529.905 754.784 529.905 754.784C529.905 754.784 538.282 755.836 540.916 756.547C543.55 757.257 544.604 758.494 544.604 758.494L549.081 765.702L551.847 772.595C551.847 772.595 552.848 772.779 552.664 775.226C552.479 777.672 551.9 784.118 551.9 784.118L553.612 786.38L555.324 789.669L553.797 792.536L551.136 795.641C551.136 795.641 548.581 799.035 548.159 799.798C547.738 800.561 547.975 803.981 547.975 803.981L548.871 809.426L541.864 811.321L539.414 815.477L540.257 818.74L534.304 820.002L533.777 821.318C533.777 821.318 532.75 822.923 532.987 825.869C533.224 828.789 533.777 831.999 533.777 831.999C533.777 831.999 527.956 832.052 526.981 832.13C526.007 832.209 518.552 831.552 518.552 831.552L506.119 824.975C506.119 824.975 498.454 821.449 497.505 821.318C496.557 821.186 490.13 819.476 490.13 819.476L486.495 811.636L485.257 809.795L480.331 811.11C480.331 811.11 472.587 814.504 471.454 815.688C470.321 816.872 468.715 818.766 467.977 819.66C467.239 820.581 464.737 823.475 464.737 823.475L457.124 821.765L447.905 820.949L442.848 823.08L424.461 822.133L409.394 822.212C409.394 822.212 407.919 828.105 407.603 829.105C407.287 830.105 405.786 833.078 404.864 834.209C403.942 835.34 400.465 839.681 400.465 839.681L397.646 844.522L388.743 854.387L383.87 859.228C383.87 859.228 383.791 863.043 383.817 863.99C383.817 864.963 384.028 871.987 384.028 871.987L386.293 876.644L386.662 880.564L385.266 883.326L387.768 886.062L389.401 889.903L390.192 897.191L390.455 903.373L400.544 904.373L393.985 915.975L392.352 920.763L383.896 920.21L366.485 938.889L339.195 923.025L330.74 910.161L322.073 901.768L309.904 889.982L295.89 886.694L299.42 899.822L289.147 896.507L284.458 891.824C284.458 891.824 281.903 890.929 281.06 895.691C280.244 900.453 281.745 907.267 281.745 907.267L275.318 903.742L270.603 893.376L268.996 900.821L255.483 900.321L249.925 909.398L246.527 918.737L238.756 920.789C238.756 920.789 234.647 920.158 232.25 922.657C229.853 925.13 226.06 928.445 226.06 928.445L211.599 929.997L205.487 933.365L204.855 939.915C204.855 939.915 207.7 943.204 203.222 943.204C198.744 943.204 190.289 943.02 190.289 943.02L182.781 942.836C182.781 942.836 182.36 956.726 182.254 958.594C182.149 960.462 178.856 965.776 178.856 965.776L167.872 963.645L162.946 962.514L152.858 972.59C152.858 972.59 143.322 980.93 141.531 981.93C139.74 982.929 131.258 986.955 131.258 986.955L108.394 964.645V953.543L96.514 953.175L87.7951 949.15C87.7951 949.15 87.4 932.47 86.399 929.471C85.398 926.498 86.3463 921.71 86.3463 921.71L93.1423 910.845L96.6721 900.479L94.6174 885.378L94.9072 885.036Z" fill="#E5E7EB"/>
<path d="M247.292 578.203L174.695 491.254L274.239 421.669L247.292 578.203Z" stroke="#4C485B" stroke-linecap="round" stroke-linejoin="round"/>
<path d="M390.717 590.621L332.318 693.959L247.289 576.125" stroke="#4C485B" stroke-linecap="round" stroke-linejoin="round"/>
<path d="M138.688 610.983L193.345 674.886L220.371 741.314" stroke="#4C485B" stroke-linecap="round" stroke-linejoin="round"/>
<path d="M366.982 476.784L493.419 386.705V505.75L366.982 476.784ZM366.982 476.784L311.639 303.281L274.234 421.669" stroke="#4C485B" stroke-linecap="round" stroke-linejoin="round"/>
<path d="M217.766 366.106L311.646 303.281L381.476 137.539L501.328 173.056L542.157 74.3996L381.476 137.539L375.839 66.5861" stroke="#4C485B" stroke-linecap="round" stroke-linejoin="round"/>
<path d="M339.141 237.984L501.323 173.056L537.279 218.148" stroke="#4C485B" stroke-linecap="round" stroke-linejoin="round"/>
<path d="M433.469 679.463L493.421 505.75L552.689 638.712L433.469 679.463Z" stroke="#4C485B" stroke-linecap="round" stroke-linejoin="round"/>
<path d="M552.688 638.712L600.023 421.669L672.54 534.716L552.688 638.712Z" stroke="#4C485B" stroke-linecap="round" stroke-linejoin="round"/>
<path d="M493.422 386.705L390.849 364.396L366.984 476.785" stroke="#4C485B" stroke-linecap="round" stroke-linejoin="round"/>
<path d="M680.211 369.71L738.636 392.704L812.944 370.079" stroke="#4C485B" stroke-linecap="round" stroke-linejoin="round"/>
<path d="M738.639 392.704L817.426 462.289L672.549 534.716L738.639 392.704ZM738.639 392.704L600.032 421.669L592.656 340.376L493.429 386.705L600.032 421.669L493.429 505.75L390.725 590.621L433.477 679.464L332.327 693.959L220.377 741.314L247.297 578.203L138.693 610.983L174.701 491.254L91.7266 401.175L274.244 421.669L366.992 476.785L247.297 578.203L390.725 590.621L366.992 476.785" stroke="#4C485B" stroke-linecap="round" stroke-linejoin="round"/>
<path d="M817.422 462.289L820.135 397.886" stroke="#4C485B" stroke-linecap="round" stroke-linejoin="round"/>
<path d="M945.18 482.178V610.378L1094.01 549.211" stroke="#4C485B" stroke-linecap="round" stroke-linejoin="round"/>
<path d="M736.503 723.503L802.936 590.62L831.937 693.959L945.178 610.378L802.936 590.62L945.178 476.785L817.423 462.289L802.936 590.62L672.547 534.715L740.033 635.055" stroke="#4C485B" stroke-linecap="round" stroke-linejoin="round"/>
<path d="M1071.62 684.752L1094.01 546.055L1191.47 638.712L1071.62 684.752Z" stroke="#4C485B" stroke-linecap="round" stroke-linejoin="round"/>
<path d="M1093.45 549.422L1179.16 506.671L1191.46 638.712L1319.22 576.125L1238.08 540.688" stroke="#4C485B" stroke-linecap="round" stroke-linejoin="round"/>
<path d="M1175.87 500.725L1079.49 401.175L1094 546.054L945.176 476.785L1079.49 401.175L1012.93 366.29L945.176 476.785L893.047 418.775" stroke="#4C485B" stroke-linecap="round" stroke-linejoin="round"/>
<path d="M1079.48 401.175L1117.65 351.163" stroke="#4C485B" stroke-linecap="round" stroke-linejoin="round"/>
<path d="M1349.35 577.309L1319.22 576.125L1362.68 708.455L1349.35 577.309Z" stroke="#4C485B" stroke-linecap="round" stroke-linejoin="round"/>
<path d="M1362.68 708.455L1191.46 638.712L1246.78 787.354L1362.68 708.455Z" stroke="#4C485B" stroke-linecap="round" stroke-linejoin="round"/>
<path d="M1246.78 787.354L1057.09 796.588L1071.61 684.752L1246.78 787.354Z" stroke="#4C485B" stroke-linecap="round" stroke-linejoin="round"/>
<path d="M792.055 749.496L810.836 875.486L831.935 693.959L916.174 753.127L945.176 610.378L1071.61 684.751L916.174 753.127L1057.1 796.588L896.445 926.787L916.174 753.127L810.836 875.486L896.445 926.787L795.848 971.827L810.836 875.486" stroke="#4C485B" stroke-linecap="round" stroke-linejoin="round"/>
<path d="M831.932 693.959L776.562 715.322" stroke="#4C485B" stroke-linecap="round" stroke-linejoin="round"/>
<path d="M896.438 926.787L910.926 953.464" stroke="#4C485B" stroke-linecap="round" stroke-linejoin="round"/>
<path d="M1057.1 796.588L1024.09 865.989L947.07 924.736" stroke="#4C485B" stroke-linecap="round" stroke-linejoin="round"/>
<path d="M1228.6 833.472L1246.78 787.354L1324.64 788.827L1362.68 708.455L1413.91 817.819" stroke="#4C485B" stroke-linecap="round" stroke-linejoin="round"/>
<path d="M1362.69 708.455L1400.91 683.647" stroke="#4C485B" stroke-linecap="round" stroke-linejoin="round"/>
<path d="M636.454 605.748L552.689 638.712L493.422 782.092L552.189 783.723" stroke="#4C485B" stroke-linecap="round" stroke-linejoin="round"/>
<path d="M552.688 638.712L575.631 696.012" stroke="#4C485B" stroke-linecap="round" stroke-linejoin="round"/>
<path d="M331.004 909.871L346.835 875.486L270.867 893.087L311.643 787.354L346.835 875.486L409.659 821.87L311.643 787.354L332.321 693.959L409.659 821.87L493.424 782.092L433.471 679.464" stroke="#4C485B" stroke-linecap="round" stroke-linejoin="round"/>
<path d="M311.649 787.354L219.297 738.631L160.188 904.452L311.649 787.354Z" stroke="#4C485B" stroke-linecap="round" stroke-linejoin="round"/>
<path d="M270.864 893.087L160.178 904.452L93.4297 910.529" stroke="#4C485B" stroke-linecap="round" stroke-linejoin="round"/>
<path d="M220.366 743.945L176.192 752.784L161.125 901.794L163.206 962.198" stroke="#4C485B" stroke-linecap="round" stroke-linejoin="round"/>
<path d="M91.7203 401.175L83.8438 495.963" stroke="#4C485B" stroke-linecap="round" stroke-linejoin="round"/>
<path d="M37.5859 359.187L95.6419 401.175L137.445 364.027" stroke="#4C485B" stroke-linecap="round" stroke-linejoin="round"/>
<path d="M274.236 421.669L211.57 369.815" stroke="#4C485B" stroke-linecap="round" stroke-linejoin="round"/>
<path d="M309.766 309.201L298.703 233.801L349.937 207.625" stroke="#4C485B" stroke-linecap="round" stroke-linejoin="round"/>
<path d="M501.32 173.056L579.448 187.762" stroke="#4C485B" stroke-linecap="round" stroke-linejoin="round"/>
<path d="M611.648 73.5317L542.16 74.3998L536.102 33.9904" stroke="#4C485B" stroke-linecap="round" stroke-linejoin="round"/>
</svg>
