<svg width="848" height="592" viewBox="0 0 848 592" fill="none" xmlns="http://www.w3.org/2000/svg">
<path d="M55.581 517.729C55.581 517.729 53.4985 509.634 53.6681 507.91C53.8224 506.186 59.1599 490.273 59.1599 490.273L62.2915 485.687L70.2052 474.776C70.2052 474.776 75.9283 464.603 76.2986 463.664C76.6688 462.726 82.8547 452.261 82.8547 452.261L84.7213 447.921L86.2022 438.871L94.2085 438.04L97.2012 438.364L103.187 440.364V429.761L106.889 424.774L111.193 419.957L114.201 415.756L115.42 406.876L114.54 400.797L112.828 398.458L113.245 394.795H111.039L109.049 396.088L105.13 394.149L103.295 385.423L101.012 384.284H97.3246C97.3246 384.284 94.1777 380.036 91.8483 377.681C89.5189 375.327 86.557 373.695 86.557 373.695L82.8547 374.296L79.3684 374.48L83.1324 365.246L81.2195 357.398C81.2195 357.398 78.2731 353.873 78.1034 351.765C77.9337 349.657 79.0444 343.685 79.0444 343.685L78.9056 338.083L76.2831 333.297L77.5789 331.02L81.1733 329.696L84.5208 327.988L78.1343 319.262L79.862 316.507L86.0325 314.937L89.0407 313.829L91.0307 310.751L90.6142 307.504L91.5706 303.549L92.1259 301.979L89.2412 299.424L85.5698 296.054L83.4718 292.16L80.2785 289.205L77.4864 288.774L73.8766 290.067L72.1489 290.267L68.5391 287.82L66.3023 287.266L62.3069 288.051L58.8051 289.375L56.9231 290.791L55.4422 291.375L53.0974 291.406L49.1174 290.144C49.1174 290.144 47.9604 289.806 47.3279 289.883C46.6955 289.96 44.8443 290.852 44.3969 291.191C43.965 291.545 42.5766 292.406 41.8207 292.514C41.0803 292.607 38.8743 292.33 38.8743 292.33C38.8743 292.33 36.2981 289.559 36.113 289.036C35.9279 288.513 35.1566 284.388 35.1566 284.388L35.0177 278.633L34.4315 274.477C34.4315 274.477 34.7401 273.631 33.8608 272.908C32.966 272.184 29.9733 270.368 29.9733 270.368L26.6721 266.782H20.6096L11.7086 264.889L6.5099 263.935C6.5099 263.935 5.19867 262.427 4.67417 262.273C4.14968 262.119 0 260.642 0 260.642V255.04L0.694184 252.639L0 250.515C0 250.515 0.910153 249.453 3.03898 249.038C5.16782 248.607 8.08339 248.238 9.76486 247.868C11.4463 247.499 13.6523 246.499 13.6523 246.499L14.6396 245.283C14.6396 245.283 12.7884 238.127 12.3102 236.911C11.832 235.695 9.84199 227.846 9.11695 226.569C8.39191 225.291 4.18053 219.767 4.18053 219.767L10.0425 217.212L9.28664 214.011C9.28664 214.011 8.16052 213.103 10.1351 212.703C12.1097 212.302 13.498 211.995 14.2231 211.81C14.9327 211.625 25.7157 209.425 25.7157 209.425C25.7157 209.425 28.6467 207.839 29.3563 207.224C30.0659 206.608 37.0232 200.406 37.0232 200.406L43.9804 202.084L47.5131 201.607C47.5131 201.607 56.5374 206.131 57.7098 206.716C58.8822 207.301 64.5283 208.378 64.5283 208.378L68.1072 208.44L74.2314 211.071L80.4945 213.026C80.4945 213.026 87.93 212.795 88.8556 212.933C89.7811 213.072 96.6459 213.903 97.3863 213.903C98.1268 213.903 101.598 214.134 101.598 214.134L108.555 217.443L113.677 216.227L117.579 216.766L123.904 216.412L125.971 216.227L127.529 214.242L125.755 210.148L131.293 204.715L134.625 201.299L135.443 197.02L133.16 191.603L132.743 190.357L134.965 186.925L135.458 171.766L139.3 173.32L146.072 170.888L148.062 167.457L151.054 172.443L153.6 168.688L155.451 167.472L156.485 165.487V154.683L160.141 168.365C160.141 168.365 164.537 165.41 164.799 165.21C165.062 165.01 166.527 161.116 166.527 161.116L158.12 141.925L163.689 142.925C163.689 142.925 164.722 141.202 165.571 141.155C166.419 141.109 169.227 140.94 169.227 140.94C169.227 140.94 172.358 139.093 172.867 138.647C173.392 138.216 174.934 136.892 174.934 136.892L176.153 132.183L175.659 127.874L166.512 129.813C166.512 129.813 159.955 132.137 157.965 133.107C155.975 134.076 149.666 137.446 149.666 137.446L140.179 136.892L138.76 138.832C138.76 138.832 138.575 139.355 137.279 139.17C135.983 138.985 133.731 138.801 132.188 138.462C130.645 138.124 126.511 136.723 126.511 136.723L124.382 136C124.382 136 123.287 132.214 123.935 131.968C124.583 131.721 141.305 125.381 141.305 125.381L147.676 123.072L151.486 126.781L155.775 125.058C155.775 125.058 157.071 122.334 158.706 121.733C160.341 121.133 167.113 119.687 167.838 119.533C168.563 119.379 173.839 118.532 173.839 118.532C173.839 118.532 177.927 118.178 179.13 118.301C180.334 118.425 186.766 119.225 188.479 119.394C190.191 119.563 204.969 121.564 204.969 121.564V114.7L200.419 112.269C200.419 112.269 197.889 106.944 199.092 107.282C200.295 107.636 205.972 108.283 205.972 108.283L208.086 102.881L205.648 98.741L204.106 91.5848L201.576 86.8447L201.005 79.9655L193.801 73.5787L200.018 67.8999L208.116 66.9303L208.332 48.9858L209.227 47.0005L208.008 43.3531L211.664 38.8131L220.18 39.0747C220.18 39.0747 225.78 40.506 226.736 41.06C227.692 41.6141 229.806 43.861 229.806 43.861C229.806 43.861 230.855 45.877 231.256 46.6311C231.657 47.3852 233.215 49.1551 233.215 49.1551C233.215 49.1551 239.355 53.0333 239.494 53.8644C239.632 54.6954 240.388 59.1738 240.388 59.1738L247.592 59.3893C247.592 59.3893 252.143 55.4033 252.606 54.6954C253.069 53.9875 256.031 49.4321 256.031 49.4321C256.031 49.4321 257.866 48.8934 258.838 48.6164C259.81 48.3394 260.134 45.9232 263.173 46.0309C266.196 46.1387 268.68 46.231 268.68 46.231L287.593 37.5973C287.593 37.5973 288.133 32.7187 287.593 31.9493C287.053 31.1952 293.918 29.2406 293.918 29.2406L295.722 30.1948C295.722 30.1948 300.597 27.5016 301.183 26.9476C301.77 26.3935 306.259 22.346 306.259 22.346L314.018 20.0221C314.018 20.0221 313.324 4.55539 314.018 3.98596C314.712 3.41654 321.361 0 321.361 0L325.927 0.200068L328.442 4.64772L330.663 5.41721L334.982 3.98596L345.071 14.0509L338.638 10.8344L334.257 7.54101L333.424 8.95687C333.424 8.95687 336.71 14.9589 337.08 15.5283C337.451 16.0977 343.976 22.9308 343.976 22.9308L351.951 29.8562L350.949 30.518L346.182 27.8556L346.089 33.0881L349.375 34.9041C349.375 34.9041 354.528 37.0895 355.438 37.5204C356.348 37.9513 358.353 40.6445 358.353 40.6445L358.261 43.1223L353.71 47.8777L353.263 50.9711L350.825 51.3096L339.286 61.1591L339.255 62.221C339.255 62.221 339.981 63.5291 338.947 64.037C337.913 64.5449 335.954 65.0374 335.954 65.0374L331.65 66.6994L330.586 68.6847L330.077 71.655C330.077 71.655 328.411 72.8246 327.331 73.4864L326.251 74.1327L320.235 77.5647L314.018 79.9655L312.583 80.5041L314.543 90.369L326.128 94.3396L337.543 93.8932L339.425 109.929L345.04 116.162C345.04 116.162 357.813 116.239 358.986 115.762C360.158 115.285 371.25 110.483 371.25 110.483H383.113V118.363L374.042 119.117L366.668 119.687L367.655 114.823L362.333 117.394L362.873 124.042L349.9 131.414V143.649H346.938V146.896H338.947L333.332 153.975C333.332 153.975 331.527 150.789 331.851 150.143C332.175 149.497 335.769 143.741 335.769 143.741L341.03 141.001L336.51 134.261L326.837 135.984L322.703 133.922L317.088 133.63L314.728 127.735C314.728 127.735 302.973 127.489 302.201 127.474C301.446 127.458 299.209 126.689 299.209 126.689L286.328 117.394L277.89 116.07L249.366 132.229L248.194 134.738L242.579 132.229L236.532 133.337L233.709 132.229L231.348 130.075L229.574 132.229V134.799L227.507 136.277V146.896L229.729 157.392L225.733 158.992L219.516 156.037V148.666L215.074 147.788L210.045 145.434V157.823L206.79 162.547V165.671L201.175 166.395L202.949 175.536L205.309 177.598L205.602 182.031L209.937 188.972L211.217 192.065L209.782 195.851L211.217 197.805L212.328 200.468V204.007L212.868 205.531L212.328 210.425L214.102 213.303H216.323L217.881 209.317L223.867 213.303L226.211 212.256L228.973 213.303L230.531 211.087L234.295 210.64L236.732 208.209L238.722 207.762L240.049 204.669L246.266 205.777C246.266 205.777 248.117 203.376 248.703 203.346C249.289 203.315 254.318 203.638 254.318 203.638C254.318 203.638 259.177 204.915 260.427 205.562C261.677 206.208 263.481 207.578 264.083 208.04C264.685 208.501 268.649 211.518 268.649 211.518L272.861 205.993C272.861 205.993 278.507 205.285 279.54 205.146C280.574 205.008 281.515 205.562 281.515 205.562L281.962 209.101L287.284 207.547L287.948 204.669L291.048 205.777L294.149 202.238C294.149 202.238 296.818 204.931 297.913 205.331C299.024 205.731 302.124 206.439 302.124 206.439L305.009 203.346L307.446 204.9L308.341 208.224L313.879 209.332L322.302 200.483L327.624 202.037L328.503 198.713C328.503 198.713 330.401 201.622 331.388 200.929C332.375 200.237 339.595 195.174 339.595 195.174L342.696 198.929L351.566 199.59L356.178 206.731C356.178 206.731 361.192 210.317 361.855 210.687C362.534 211.056 364.2 211.979 364.2 211.979L364.863 216.842L363.305 219.936L363.521 222.598L368.673 225.03L372.9 224.645L377.05 221.49L379.935 223.706L383.035 224.307L383.699 218.935L389.021 221.49L395.562 220.505L398.338 216.412V208.67L400.328 205.793L408.535 206.593C408.535 206.593 417.405 200.96 417.853 201.591C418.3 202.222 420.074 204.685 420.074 204.685L424.069 202.007V197.836C424.069 197.836 433.51 197.467 433.695 196.897C433.881 196.328 434.05 192.08 434.05 192.08L440.714 191.988L439.82 188.987L446.7 191.649L448.505 195.02L446.916 201.607L448.227 208.47L449.569 210.502L452.901 212.564L455.786 211.502C455.786 211.502 456.388 212.379 457.544 212.241C458.717 212.102 463.684 210.948 464.317 210.733C464.949 210.517 466.6 209.809 467.294 209.809C467.988 209.809 473.202 210.594 473.202 210.594L476.056 216.673L474.837 221.105L471.289 223.768L470.518 227.523L472.832 231.294L476.056 234.371L477.491 235.48L480.267 232.94H487.703L491.837 226.153L495.231 224.399L500.584 220.382L505.104 222.537L506.986 233.263C506.986 233.263 514.838 233.556 515.409 233.571C515.979 233.587 519.08 236.464 519.08 236.464L521.178 240.312L522.952 245.16C522.952 245.16 526.747 238.419 526.947 237.465C527.148 236.511 529.94 225.738 529.94 225.738L536.558 221.536C536.558 221.536 541.186 220.305 542.127 220.259C543.068 220.213 548.02 219.997 548.02 219.997V215.688L555.671 215.134L557.553 219.336L559.96 217.258L561.317 212.487L572.625 212.149L579.274 216.581L583.161 215.026L586.262 214.688L589.362 216.581L593.126 214.472L594.422 212.656L598.664 214.903C598.664 214.903 603.092 213.349 603.848 213.38C604.604 213.411 606.424 213.564 606.424 213.564L610.311 211.579L617.315 211.164L620.955 211.902L622.159 213.272L625.768 211.225L629.671 208.624C629.671 208.624 630.813 207.886 632.047 207.809C633.281 207.732 635.672 207.332 635.672 207.332C635.672 207.332 639.051 204.669 639.143 203.715C639.236 202.761 639.405 199.929 639.405 199.929L644.681 196.205L651.777 193.881H664.905L664.303 201.406L654.431 205.608L661.079 208.701L660.632 217.335L659.521 220.213L662.406 220.659L664.288 223.983L667.944 223.768L671.955 226.584L673.559 230.663L674.377 233.941L676.814 234.156V236.818L678.249 238.25L679.653 240.358C679.653 240.358 680.347 242.543 680.347 243.667V245.883L683.895 247.207V249.423L686.78 251.193L690.482 249.638L692.086 250.9L694.493 256.071C694.493 256.071 696.128 260.257 696.22 260.811C696.313 261.365 696.097 265.567 696.097 265.567L696.251 266.305L693.49 265.397L690.559 262.904H687.242C687.242 262.904 684.867 262.781 685.021 263.566C685.175 264.351 685.515 266.736 685.515 266.736L681.936 269.337C681.936 269.337 681.026 271.061 681.026 272C681.026 272.938 681.966 276.524 681.966 276.524L684.311 279.002L687.011 282.372L688.77 285.204L688.646 287.759L687.026 291.437L688.523 293.068L690.451 296.546L692.009 298.839L693.413 300.271L694.23 307.689L702.885 312.783L705.769 311.782L707.944 315.63L713.313 318.092L718.265 316.892L724.96 316.43L722.291 311.336L724.96 305.811C724.96 305.811 726.379 307.519 727.844 304.257C729.31 301.009 731.068 299.732 731.068 299.732L735.773 299.963L739.059 302.579C739.059 302.579 744.613 305.565 745.924 306.088C747.235 306.596 750.799 308.673 752.048 309.643C753.313 310.613 755.242 312.198 756.738 312.875C758.234 313.552 763.448 314.999 764.127 315.183C764.806 315.368 768.925 317.8 771.115 318.785C773.306 319.77 776.19 320.339 777.502 320.585C778.813 320.831 783.348 321.678 783.348 321.678L790.614 325.956L790.845 330.527L790.12 337.868C790.12 337.868 792.28 342.916 792.45 343.424C792.619 343.932 794.147 350.072 794.147 350.072C794.147 350.072 793.576 350.18 795.257 350.965C796.939 351.75 801.243 354.52 801.243 354.52L804.991 359.321C804.991 359.321 806.889 364.523 807.244 365.523C807.598 366.524 808.755 369.263 809.743 370.11C810.73 370.956 815.096 373.957 815.096 373.957C815.096 373.957 817.826 376.189 818.181 376.62C818.536 377.05 819.939 380.159 819.939 380.159C819.939 380.159 818.891 382.221 818.906 383.176C818.906 384.13 820.263 388.885 820.664 389.732C821.065 390.578 822.3 394.98 822.3 394.98C822.3 394.98 819.831 399.381 820.279 400.058C820.742 400.735 822.3 403.613 822.3 403.613L826.249 404.29L829.504 404.937L830.275 406.491L827.606 413.786C827.606 413.786 825.138 417.572 824.722 418.126C824.305 418.665 821.93 422.096 821.883 422.866C821.837 423.635 823.164 427.498 823.611 428.776C824.058 430.053 825.616 436.44 825.616 436.44C825.616 436.44 825.74 440.78 827.329 440.487C828.918 440.195 838.127 443.519 838.127 443.519V441.503L840.919 442.996L844.359 447.197C844.359 447.197 846.041 449.229 846.303 450.244C846.55 451.26 846.596 455.831 846.596 455.831C846.596 455.831 846.72 459.601 846.596 461.31C846.473 463.018 843.711 464.218 845.578 466.25C847.445 468.281 848 469.836 848 469.836C848 469.836 846.118 470.713 845.131 470.898C844.143 471.082 838.343 472.406 838.343 472.406C838.343 472.406 834.379 474.376 833.561 474.853C832.743 475.33 828.347 478.131 827.884 478.562C827.421 479.008 824.274 484.01 824.274 484.01C824.274 484.01 822.809 479.454 822.099 478.1C821.389 476.746 818.335 473.606 818.335 473.606L814.586 470.313L815.08 469.22L814.849 468.189L810.468 466.835L806.457 466.527C806.457 466.527 805.516 466.527 804.343 465.542C803.171 464.572 801.274 462.479 801.274 462.479L794.949 466.588C794.949 466.588 793.021 467.066 792.064 467.173C791.108 467.281 787.961 467.496 787.961 467.496L788.223 465.896L785.693 464.141L782.824 465.188L779.291 464.911L777.486 464.111L778.088 462.264L775.604 461.602C775.604 461.602 773.892 461.848 773.321 463.049C772.75 464.249 772.149 466.65 771.871 467.204C771.593 467.758 770.529 467.789 770.529 467.789L767.721 464.695L763.587 464.403L762.97 466.111L760.147 467.158C760.147 467.158 757.463 466.665 756.676 466.142C755.889 465.619 754.594 465.265 754.594 465.265L751.323 468.528L753.39 470.882L753.776 474.16L749.256 476.484L746.14 477.069L742.53 478.577L739.831 480.224L737.44 480.901L734.786 480.193L733.891 480.901L731.084 484.148L728.431 484.979L725.731 485.225L724.265 487.026L722.661 488.565L720.825 487.934C720.825 487.934 720.517 487.426 719.406 487.688C718.295 487.949 716.398 488.596 716.398 488.596C716.398 488.596 715.365 489.104 714.686 489.75C714.007 490.396 712.187 492.32 712.187 492.32C712.187 492.32 712.125 493.751 711.847 494.567C711.57 495.383 704.705 497.784 704.705 497.784L701.234 497.414L700.725 495.583L695.465 494.013L692.95 495.783L690.852 496.291L688.307 492.997L687.767 491.951L691.608 490.627C691.608 490.627 691.083 487.072 691.901 486.934C692.719 486.795 694.076 487.257 695.896 486.487C697.717 485.718 703.286 482.209 703.286 482.209L703.44 469.405L692.503 467.466L689.402 470.559C689.402 470.559 686.517 470.297 684.975 470.066C683.432 469.836 681.627 469.589 680.763 469.066C679.899 468.543 676.444 466.111 676.444 466.111L673.405 465.342L669.425 465.85L665.106 468.374L661.388 471.175L660.107 472.206L658.626 469.112C658.626 469.112 655.356 469.466 654.801 469.512C654.245 469.574 651.685 469.851 651.685 469.851L643.601 479.054L637.446 479.531L631.43 485.641L631.584 490.812L617.33 496.168L607.195 505.555L599.652 506.74L588.853 535.796L581.094 534.688L573.735 539.475L554.545 541.106L528.521 561.759L528.583 566.653L522.582 566.284L510.626 580.057L505.644 581.027L500.229 589.338L480.9 592L469.222 580.488L465.967 568.654C465.967 568.654 456.819 556.049 456.789 555.557C456.758 555.064 456.202 545.677 456.202 545.677L450.464 541.491L451.976 523.9L455.015 522.761L454.567 519.114C454.567 519.114 455.693 518.698 455.894 517.498C456.094 516.297 457.514 507.618 457.514 507.618L458.393 506.094L456.326 502.462L455.431 493.905L456.758 492.582L457.344 485.949L459.858 483.594L459.411 480.055C459.411 480.055 457.807 477.484 457.282 476.623C456.758 475.776 456.619 466.619 456.619 466.619L459.164 463.587L458.686 455.708C458.686 455.708 460.229 452.907 460.167 452.014C460.09 451.137 458.393 444.35 458.393 444.35L463.715 438.594C463.715 438.594 464.548 429.914 464.718 429.207C464.872 428.483 465.489 425.775 465.489 425.775L462.234 420.911C462.234 420.911 458.671 419.065 458.162 418.895C457.668 418.726 454.629 418.649 454.629 418.649C454.629 418.649 453.117 419.142 451.806 420.219C450.495 421.296 447.24 423.928 446.839 424.251C446.438 424.574 444.602 425.575 444.031 425.775C443.46 425.975 438.987 427.544 438.092 427.868C437.197 428.191 435.608 428.745 435.608 428.745L431.165 423.435L429.237 424.913C429.237 424.913 428.234 421.835 428.265 421.25C428.296 420.681 428.651 413.694 428.651 413.694L430.872 411.924L430.718 407.353L432.94 405.291L433.233 399.535L436.04 393.04L436.904 392.102L437.66 378.297L433.834 376.065L433.233 371.71L422.033 370.818C422.033 370.818 417.297 367.047 416.973 366.801C416.649 366.539 415.6 362.307 415.6 362.307L409.569 358.567L403.953 357.875L402.75 359.152L399.634 351.796C399.634 351.796 396.163 349.472 395.685 349.164C395.191 348.856 393.433 348.256 393.433 348.256L391.211 349.026C391.211 349.026 390.548 350.087 390.486 351.057C390.425 352.027 391.767 354.12 391.767 354.12L389.098 356.998L383.884 352.458L380.552 356.105L372.561 354.551L369.229 359.014L362.549 360.676L362.364 363.615L363.351 364.739L359.695 370.494L354.697 371.341V378.528L348.712 385.315L346.089 392.979C346.089 392.979 345.164 398.75 345.133 399.304C345.102 399.874 344.948 402.444 344.948 402.444L338.623 404.875L336.942 407.338L335.522 409.415L331.974 411.293L330.308 411.847L329.537 416.648C329.537 416.648 327.316 419.08 326.868 419.588C326.421 420.096 322.317 424.574 322.317 424.574L320.096 422.589L319.88 426.467L314.882 428.576L314.774 430.684L311.118 429.022L309.791 432.008C309.791 432.008 310.254 439.595 310.269 440.164C310.3 440.733 310.331 441.534 310.331 441.534C310.331 441.534 315.237 442.149 316.779 442.565C318.322 442.98 318.939 443.704 318.939 443.704L321.562 447.921L323.181 451.953C323.181 451.953 323.767 452.06 323.659 453.492C323.552 454.923 323.212 458.693 323.212 458.693L324.215 460.017L325.218 461.941L324.323 463.618L322.765 465.434C322.765 465.434 321.268 467.419 321.022 467.866C320.775 468.312 320.914 470.313 320.914 470.313L321.438 473.498L317.335 474.606L315.9 477.038L316.394 478.946L312.907 479.685L312.599 480.455C312.599 480.455 311.997 481.393 312.136 483.117C312.275 484.825 312.599 486.703 312.599 486.703C312.599 486.703 309.19 486.734 308.619 486.78C308.048 486.826 303.682 486.441 303.682 486.441L296.401 482.594C296.401 482.594 291.912 480.532 291.357 480.455C290.801 480.378 287.037 479.377 287.037 479.377L284.909 474.791L284.184 473.714L281.299 474.483C281.299 474.483 276.764 476.469 276.1 477.161C275.437 477.854 274.496 478.962 274.064 479.485C273.632 480.024 272.166 481.717 272.166 481.717L267.708 480.716L262.309 480.239L259.347 481.486L248.58 480.932L239.756 480.978C239.756 480.978 238.892 484.425 238.707 485.01C238.522 485.595 237.642 487.334 237.102 487.996C236.563 488.657 234.526 491.197 234.526 491.197L232.876 494.028L227.662 499.8L224.808 502.631C224.808 502.631 224.761 504.863 224.777 505.417C224.777 505.986 224.9 510.095 224.9 510.095L226.227 512.819L226.443 515.112L225.625 516.728L227.091 518.329L228.047 520.576L228.51 524.839L228.664 528.455L234.573 529.04L230.731 535.827L229.775 538.628L224.823 538.305L214.626 549.232L198.645 539.952L193.693 532.426L188.618 527.517L181.491 520.622L173.284 518.698L175.351 526.378L169.335 524.439L166.589 521.699C166.589 521.699 165.092 521.176 164.599 523.962C164.121 526.747 165 530.733 165 530.733L161.236 528.671L158.475 522.607L157.534 526.963L149.62 526.67L146.365 531.98L144.375 537.443L139.824 538.643C139.824 538.643 137.418 538.274 136.014 539.736C134.61 541.183 132.389 543.122 132.389 543.122L123.92 544.03L120.341 546L119.97 549.832C119.97 549.832 121.636 551.756 119.014 551.756C116.392 551.756 111.44 551.648 111.44 551.648L107.043 551.54C107.043 551.54 106.796 559.666 106.735 560.759C106.673 561.851 104.745 564.96 104.745 564.96L98.3119 563.714L95.4272 563.052L89.5189 568.946C89.5189 568.946 83.9346 573.825 82.8856 574.409C81.8366 574.994 76.8693 577.349 76.8693 577.349L63.4793 564.298V557.804L56.522 557.588L51.4159 555.234C51.4159 555.234 51.1845 545.477 50.5983 543.722C50.0121 541.983 50.5675 539.182 50.5675 539.182L54.5474 532.826L56.6146 526.763L55.4113 517.929L55.581 517.729Z" fill="#E5E7EB"/>
</svg>
