<?xml version="1.0" standalone="no"?>
<!DOCTYPE svg PUBLIC "-//W3C//DTD SVG 20010904//EN"
 "http://www.w3.org/TR/2001/REC-SVG-20010904/DTD/svg10.dtd">
<svg version="1.0" xmlns="http://www.w3.org/2000/svg"
 width="1392.000000pt" height="1392.000000pt" viewBox="0 0 1392.000000 1392.000000"
 preserveAspectRatio="xMidYMid meet">
<metadata>
Created by potrace 1.14, written by Peter Selinger 2001-2017
</metadata>
<g transform="translate(0.000000,1392.000000) scale(0.100000,-0.100000)"
fill="#000000" stroke="none">
<path d="M9628 10475 c-1 -1 -25 -6 -53 -9 -55 -7 -225 -34 -265 -41 -14 -3
-36 -7 -50 -9 -77 -13 -97 -17 -113 -22 -11 -3 -29 -7 -40 -9 -12 -2 -74 -17
-137 -34 -63 -17 -125 -33 -137 -36 -76 -18 -335 -114 -463 -173 -36 -16 -94
-42 -130 -57 -93 -39 -120 -51 -160 -69 -19 -8 -84 -36 -145 -62 -60 -25 -123
-52 -140 -59 -16 -7 -79 -34 -140 -60 -60 -26 -123 -53 -140 -60 -54 -25 -110
-48 -120 -51 -5 -1 -18 -5 -27 -9 -11 -4 -18 -3 -18 4 0 6 -7 11 -15 11 -8 0
-15 3 -15 8 0 4 -37 29 -82 57 -46 27 -85 52 -88 55 -3 3 -23 14 -45 25 -22
11 -42 23 -45 26 -9 11 -367 183 -405 195 -11 3 -248 91 -280 104 -17 7 -86
27 -120 36 -5 1 -44 12 -85 23 -70 19 -99 25 -160 37 -14 2 -36 7 -50 10 -32
8 -54 11 -114 19 -45 5 -77 9 -181 21 -49 5 -333 5 -395 -1 -25 -2 -70 -7
-100 -11 -30 -4 -65 -8 -77 -8 -13 -1 -23 -3 -23 -6 0 -3 -8 -6 -17 -6 -23 -1
-78 -12 -128 -25 -22 -6 -47 -12 -55 -14 -21 -4 -154 -49 -220 -74 -74 -29
-264 -123 -268 -133 -2 -4 -8 -8 -14 -8 -11 0 -173 -110 -205 -139 -12 -12
-24 -21 -27 -21 -3 0 -16 -10 -29 -22 -12 -13 -41 -39 -62 -59 -22 -20 -65
-63 -95 -96 -144 -157 -239 -299 -344 -515 -67 -140 -162 -397 -171 -468 -1
-8 -9 -42 -18 -75 -9 -33 -19 -76 -22 -95 -3 -19 -8 -42 -10 -50 -7 -27 -19
-104 -19 -132 -1 -16 -5 -28 -9 -28 -5 0 -6 -3 -4 -7 3 -5 1 -35 -4 -68 -16
-119 -22 -224 -23 -437 l-1 -217 -65 -63 c-36 -35 -85 -79 -109 -98 -24 -19
-48 -39 -55 -45 -6 -5 -31 -23 -56 -40 -25 -16 -47 -33 -50 -36 -3 -3 -41 -27
-85 -54 -124 -75 -301 -161 -435 -212 -89 -34 -332 -104 -338 -98 -3 3 -10 1
-16 -4 -9 -8 -52 -18 -143 -35 -11 -3 -43 -8 -70 -12 -26 -3 -57 -8 -68 -10
-11 -2 -40 -7 -65 -9 -25 -3 -61 -8 -80 -10 -79 -9 -283 -19 -400 -18 -110 0
-375 10 -375 14 0 1 -6 2 -130 14 -44 4 -87 8 -95 10 -8 2 -35 6 -60 9 -25 3
-56 8 -70 11 -13 2 -40 7 -60 10 -42 6 -59 9 -163 31 -43 8 -90 17 -105 19
-15 2 -27 4 -27 5 0 1 -7 3 -16 5 -9 1 -27 6 -39 10 -20 6 -22 5 -16 -16 4
-13 9 -32 11 -41 5 -25 54 -158 69 -193 107 -234 194 -384 320 -550 34 -44 63
-82 66 -85 3 -3 27 -31 54 -63 84 -99 300 -303 366 -346 14 -9 34 -24 45 -34
11 -10 32 -26 47 -35 16 -9 28 -20 28 -24 0 -4 4 -8 10 -8 5 0 49 -26 97 -57
72 -47 375 -210 393 -211 7 -1 46 -16 95 -37 22 -9 47 -19 55 -21 8 -2 72 -23
141 -46 70 -24 133 -45 140 -46 8 -2 48 -13 89 -23 41 -11 85 -21 98 -24 12
-2 30 -6 40 -9 9 -3 31 -8 47 -10 17 -3 41 -7 55 -10 14 -2 41 -7 60 -10 19
-3 46 -8 60 -10 317 -56 943 -66 1235 -21 79 13 91 14 132 20 24 2 78 12 120
21 112 23 128 27 182 43 19 6 38 8 42 5 5 -3 9 0 9 5 0 6 8 11 19 11 10 0 65
16 122 36 57 19 109 37 114 38 11 3 52 20 110 44 68 29 279 134 295 147 8 7
38 25 65 40 52 28 241 158 287 197 14 13 37 32 50 42 65 54 172 153 243 227
144 150 153 159 146 159 -3 0 -1 4 5 8 11 8 136 160 169 206 11 16 29 40 41
55 22 27 155 225 216 321 70 109 246 413 290 500 13 25 26 47 29 50 3 3 12 19
20 35 9 17 30 56 47 88 18 31 46 83 63 115 18 31 42 75 54 97 12 22 31 56 41
75 11 19 21 37 24 40 3 3 14 23 25 45 11 22 25 45 31 51 6 7 17 26 24 43 7 17
16 31 21 31 5 0 9 4 9 9 0 23 194 310 248 366 6 8 12 17 12 21 0 3 8 14 18 23
9 9 46 50 82 91 83 97 173 191 177 186 2 -2 6 -14 8 -27 3 -13 9 -46 15 -74
21 -103 32 -181 35 -246 1 -25 4 -50 6 -55 3 -5 4 -63 2 -129 -2 -66 -4 -149
-5 -185 -2 -75 1 -89 35 -156 48 -95 164 -240 312 -388 100 -101 100 -118 -6
-218 -44 -43 -87 -78 -95 -78 -8 0 -14 -3 -14 -8 0 -11 -105 -72 -124 -72 -17
0 -35 -28 -31 -50 2 -8 5 -30 8 -48 6 -35 16 -51 57 -93 75 -74 93 -129 57
-171 -27 -32 -107 -79 -164 -97 -37 -12 -58 -31 -35 -31 18 0 96 -87 114 -127
34 -76 16 -108 -80 -139 -117 -38 -154 -69 -172 -145 -11 -43 -9 -55 20 -135
17 -49 33 -96 34 -104 1 -8 5 -22 9 -30 26 -62 5 -156 -50 -212 -62 -63 -122
-88 -273 -113 -58 -10 -265 -19 -345 -15 -68 3 -172 -11 -220 -30 -16 -6 -30
-11 -30 -10 0 1 -13 -2 -30 -6 -91 -22 -243 -149 -301 -250 -59 -103 -68 -128
-67 -198 1 -136 21 -226 95 -416 22 -60 28 -61 84 -20 122 91 298 182 419 217
181 52 248 63 405 65 101 2 236 -12 258 -25 6 -5 12 -6 12 -4 0 3 17 1 38 -4
20 -5 45 -12 55 -14 118 -27 391 -150 448 -201 8 -8 18 -14 22 -14 16 0 226
-160 288 -220 49 -47 103 -95 179 -158 41 -34 89 -75 106 -90 17 -15 43 -33
57 -41 15 -8 27 -18 27 -23 0 -4 5 -8 11 -8 5 0 27 -13 47 -29 94 -75 421
-253 547 -298 89 -31 279 -93 297 -97 12 -2 43 -9 68 -16 25 -7 56 -14 70 -16
14 -2 36 -7 50 -10 14 -3 43 -8 65 -10 22 -3 51 -7 65 -10 47 -8 205 -18 305
-18 100 0 283 12 294 18 3 2 26 7 51 10 25 4 106 20 180 36 74 17 146 33 160
36 43 9 282 92 335 115 28 13 52 23 55 24 10 1 141 68 144 74 2 3 -39 6 -92 7
-94 1 -181 8 -232 18 -14 3 -43 8 -65 11 -65 10 -77 13 -130 25 -27 6 -57 13
-65 15 -48 10 -189 48 -229 62 -25 8 -51 16 -58 17 -7 1 -16 5 -19 9 -4 4 -16
7 -26 7 -10 0 -26 4 -36 9 -9 5 -42 19 -72 31 -62 25 -212 98 -280 137 -67 39
-225 145 -228 155 -2 4 -10 8 -17 8 -7 0 -15 4 -17 8 -1 4 -21 21 -43 37 -50
38 -109 90 -204 183 -84 82 -87 78 34 51 87 -20 181 -38 230 -44 22 -3 78 -10
125 -15 148 -19 230 -23 445 -23 298 0 413 11 700 69 158 31 401 92 465 117 8
3 47 15 85 27 67 21 98 33 218 81 200 81 424 197 607 314 76 49 236 161 256
180 6 5 26 21 44 35 18 14 38 30 44 35 6 6 38 33 71 60 110 92 367 356 437
451 13 16 29 37 36 45 22 24 152 202 175 239 11 19 23 37 27 40 7 6 100 160
133 220 106 193 189 376 252 555 57 161 60 175 38 175 -9 0 -24 -7 -33 -15 -9
-8 -25 -16 -36 -18 -10 -2 -30 -9 -44 -14 -85 -36 -153 -61 -300 -108 -169
-54 -260 -82 -295 -90 -11 -2 -35 -8 -53 -14 -18 -5 -35 -10 -37 -10 -3 -1 -6
-1 -7 -2 -2 0 -14 -3 -27 -5 -14 -2 -50 -11 -80 -19 -31 -8 -72 -17 -91 -20
-19 -3 -42 -8 -50 -10 -8 -2 -28 -7 -45 -10 -16 -2 -41 -7 -55 -10 -14 -3 -43
-8 -64 -10 -21 -3 -42 -7 -45 -9 -3 -3 -31 -7 -61 -10 -30 -3 -66 -8 -80 -11
-14 -3 -47 -8 -75 -11 -80 -9 -117 -13 -160 -18 -234 -28 -860 -28 -1045 -1
-19 3 -57 8 -85 10 -59 5 -106 12 -143 19 -15 3 -47 8 -72 11 -25 3 -52 8 -60
10 -8 3 -31 7 -50 10 -50 7 -88 14 -150 30 -30 8 -68 16 -85 19 -30 5 -222 58
-280 77 -148 47 -189 61 -250 84 -38 14 -79 30 -90 35 -11 5 -56 23 -100 41
-44 18 -84 35 -90 39 -5 4 -27 13 -47 19 -21 7 -38 17 -38 22 0 5 -7 9 -15 9
-16 0 -319 154 -335 170 -5 5 -15 11 -89 52 -52 29 -246 155 -311 202 -84 61
-164 120 -170 126 -3 3 -23 18 -45 34 -22 17 -49 38 -60 47 -11 10 -42 37 -70
60 -248 207 -501 466 -690 704 -22 28 -44 55 -50 61 -5 6 -28 37 -50 68 -22
31 -55 77 -72 101 -40 53 -44 69 -6 23 45 -54 312 -318 393 -388 41 -36 77
-67 80 -70 14 -14 114 -92 185 -145 44 -33 82 -63 83 -67 2 -4 8 -8 13 -8 5 0
32 -16 59 -35 27 -19 54 -35 59 -35 5 0 11 -3 13 -7 12 -27 332 -192 479 -247
129 -49 178 -63 304 -91 116 -25 160 -25 191 -1 35 27 136 128 194 193 85 95
100 113 100 122 0 5 3 11 8 13 10 4 145 187 162 218 7 14 16 27 19 30 9 7 51
68 51 74 0 2 18 32 40 65 22 33 40 65 40 71 0 5 3 10 8 10 4 0 12 10 18 23 6
12 42 76 80 142 129 222 295 573 320 675 2 8 13 51 25 95 37 140 42 179 43
310 0 134 -9 194 -44 288 -24 64 -72 140 -122 196 -72 78 -217 166 -310 187
-5 1 -9 2 -10 4 -3 2 -10 3 -88 21 -48 10 -422 23 -432 14z"/>
</g>
</svg>
