<svg width="48" height="48" viewBox="0 0 48 48" fill="none" xmlns="http://www.w3.org/2000/svg">
<g clip-path="url(#clip0_4025_76)">
<path d="M16 26V9C16 8.20435 16.3161 7.44129 16.8787 6.87868C17.4413 6.31607 18.2044 6 19 6C19.7956 6 20.5587 6.31607 21.1213 6.87868C21.6839 7.44129 22 8.20435 22 9V24" stroke="white" stroke-width="1.5" stroke-linecap="round" fill="none" stroke-linejoin="round"/>
<path d="M22 23V19C22 18.606 22.0776 18.2159 22.2284 17.8519C22.3791 17.488 22.6001 17.1573 22.8787 16.8787C23.1573 16.6001 23.488 16.3791 23.8519 16.2284C24.2159 16.0776 24.606 16 25 16C25.394 16 25.7841 16.0776 26.1481 16.2284C26.512 16.3791 26.8427 16.6001 27.1213 16.8787C27.3999 17.1573 27.6209 17.488 27.7716 17.8519C27.9224 18.2159 28 18.606 28 19V24" stroke="white" fill="none" stroke-width="1.5" stroke-linecap="round" stroke-linejoin="round"/>
<path d="M28 21C28 20.2044 28.3161 19.4413 28.8787 18.8787C29.4413 18.3161 30.2044 18 31 18C31.7956 18 32.5587 18.3161 33.1213 18.8787C33.6839 19.4413 34 20.2044 34 21V24" stroke="white" stroke-width="1.5" stroke-linecap="round" fill="none" stroke-linejoin="round"/>
<path d="M33.9965 23C33.9965 22.2044 34.3125 21.4413 34.8751 20.8787C35.4378 20.3161 36.2008 20 36.9965 20C37.7921 20 38.5552 20.3161 39.1178 20.8787C39.6804 21.4413 39.9965 22.2044 39.9965 23V32C39.9965 35.1826 38.7322 38.2348 36.4817 40.4853C34.2313 42.7357 31.1791 44 27.9965 44H23.9965H24.4125C22.4251 44.0003 20.4688 43.5071 18.7192 42.5646C16.9696 41.622 15.4815 40.2597 14.3885 38.6C14.2573 38.4003 14.1266 38.2003 13.9965 38C13.3725 37.042 11.1825 33.224 7.42446 26.544C7.04136 25.8631 6.93903 25.0595 7.13922 24.3043C7.33942 23.5491 7.82636 22.9018 8.49646 22.5C9.21022 22.0717 10.0466 21.8942 10.8728 21.9957C11.699 22.0972 12.4675 22.4718 13.0565 23.06L15.9965 26" stroke="white" fill="none" stroke-width="1.5" stroke-linecap="round" stroke-linejoin="round"/>
</g>
<defs>
<clipPath id="clip0_4025_76">
<rect width="48" height="48" fill="white"/>
</clipPath>
</defs>
</svg>
