<svg width="20" height="18" viewBox="0 0 20 18" fill="none" xmlns="http://www.w3.org/2000/svg">
<path d="M5.38394 1.44064C5.46164 1.44064 5.53616 1.40978 5.5911 1.35484C5.64605 1.29989 5.67691 1.22538 5.67691 1.14768V0.590332C5.67691 0.428535 5.54578 0.297363 5.38394 0.297363C5.22211 0.297363 5.09098 0.428535 5.09098 0.590332V1.14764C5.09097 1.18611 5.09855 1.22421 5.11327 1.25976C5.12799 1.29531 5.14957 1.32761 5.17677 1.35482C5.20398 1.38203 5.23627 1.40361 5.27182 1.41834C5.30737 1.43307 5.34547 1.44064 5.38394 1.44064ZM5.09098 5.7151V6.2724C5.09098 6.4342 5.22211 6.56537 5.38394 6.56537C5.54578 6.56537 5.67691 6.4342 5.67691 6.2724V5.7151C5.67691 5.5533 5.54578 5.42213 5.38394 5.42213C5.22211 5.42213 5.09098 5.5533 5.09098 5.7151ZM3.56195 2.02369C3.58912 2.05109 3.62142 2.07285 3.65702 2.08773C3.69261 2.10261 3.7308 2.11032 3.76938 2.1104C3.80796 2.11048 3.84618 2.10294 3.88184 2.08822C3.9175 2.07349 3.9499 2.05186 3.97718 2.02458C4.00446 1.9973 4.02608 1.9649 4.0408 1.92924C4.05553 1.89357 4.06306 1.85536 4.06298 1.81678C4.06289 1.77819 4.05518 1.74001 4.0403 1.70442C4.02542 1.66882 4.00365 1.63652 3.97625 1.60936L3.58215 1.21529C3.55494 1.18809 3.52265 1.1665 3.4871 1.15178C3.45155 1.13706 3.41346 1.12948 3.37498 1.12948C3.3365 1.12948 3.29841 1.13706 3.26286 1.15178C3.22731 1.1665 3.19502 1.18809 3.16781 1.21529C3.14061 1.2425 3.11903 1.2748 3.10431 1.31035C3.08959 1.3459 3.08201 1.38399 3.08202 1.42247C3.08202 1.46094 3.0896 1.49904 3.10433 1.53459C3.11906 1.57013 3.14064 1.60243 3.16785 1.62963L3.56195 2.02369ZM7.20602 4.83904C7.15072 4.78581 7.07675 4.7564 7 4.75713C6.92325 4.75786 6.84985 4.78867 6.79557 4.84294C6.7413 4.89721 6.71048 4.97061 6.70975 5.04736C6.70901 5.1241 6.73842 5.19808 6.79164 5.25338L7.18574 5.64748C7.24104 5.70071 7.31501 5.73012 7.39176 5.72939C7.46851 5.72867 7.54191 5.69785 7.59618 5.64359C7.65046 5.58932 7.68127 5.51592 7.68201 5.43917C7.68275 5.36242 7.65334 5.28844 7.60012 5.23314L7.20602 4.83904ZM2.54293 3.72436H3.10027C3.26211 3.72436 3.39324 3.59318 3.39324 3.43139C3.39324 3.26959 3.26211 3.13842 3.10027 3.13842H2.54293C2.38109 3.13842 2.24996 3.26959 2.24996 3.43139C2.24996 3.59318 2.38109 3.72436 2.54293 3.72436ZM7.37469 3.43139C7.37469 3.46986 7.38226 3.50796 7.39699 3.5435C7.41171 3.57905 7.43329 3.61134 7.46049 3.63855C7.4877 3.66575 7.52 3.68733 7.55554 3.70205C7.59109 3.71678 7.62918 3.72436 7.66766 3.72436H8.225C8.38684 3.72436 8.51797 3.59318 8.51797 3.43139C8.51797 3.26959 8.38684 3.13842 8.225 3.13842H7.66766C7.58996 3.13842 7.51544 3.16928 7.46049 3.22423C7.40555 3.27917 7.37469 3.35369 7.37469 3.43139ZM3.56191 4.83904L3.16781 5.23314C2.98262 5.41834 3.11641 5.7333 3.375 5.7333C3.41349 5.73335 3.4516 5.72579 3.48716 5.71107C3.52271 5.69634 3.55501 5.67473 3.58219 5.64748L3.97629 5.25338C4.00349 5.22617 4.02507 5.19387 4.0398 5.15832C4.05452 5.12277 4.0621 5.08467 4.06209 5.0462C4.06209 5.00772 4.05451 4.96962 4.03979 4.93407C4.02506 4.89853 4.00348 4.86623 3.97627 4.83902C3.94906 4.81182 3.91676 4.79024 3.88121 4.77552C3.84566 4.76079 3.80756 4.75322 3.76909 4.75322C3.73061 4.75322 3.69251 4.7608 3.65696 4.77553C3.62142 4.79025 3.58912 4.81183 3.56191 4.83904ZM7.20598 2.02369L7.60008 1.62963C7.62729 1.60243 7.64887 1.57013 7.6636 1.53459C7.67833 1.49904 7.68591 1.46094 7.68591 1.42247C7.68592 1.38399 7.67834 1.3459 7.66362 1.31035C7.6489 1.2748 7.62732 1.2425 7.60012 1.21529C7.57291 1.18809 7.54061 1.1665 7.50507 1.15178C7.46952 1.13706 7.43142 1.12948 7.39295 1.12948C7.35447 1.12948 7.31638 1.13706 7.28083 1.15178C7.24528 1.1665 7.21299 1.18809 7.18578 1.21529L6.79164 1.60936C6.7367 1.6643 6.70583 1.73882 6.70583 1.81652C6.70583 1.89423 6.7367 1.96875 6.79164 2.02369C6.84658 2.07864 6.9211 2.1095 6.99881 2.1095C7.07651 2.1095 7.15103 2.07864 7.20598 2.02369ZM19.9992 16.7299C19.9776 16.192 19.4762 15.7539 18.9146 15.846C18.689 15.4145 19.675 17.3821 15.6248 9.28166L14.2365 6.5051C13.961 5.95404 13.1749 5.95588 12.9003 6.5051C12.5321 7.24162 12.1638 7.97813 11.7955 8.71463L10.1343 5.39213C9.8843 4.89189 9.16965 4.89189 8.91957 5.39213L7.55773 8.11584C7.50012 8.23104 7.33519 8.23189 7.27719 8.11584C7.02707 7.61564 6.3125 7.61568 6.06242 8.11584L3.85961 12.5217L3.79992 12.4022C3.61527 12.033 3.09105 12.0368 2.90832 12.4022L0.551211 17.1163H0.292969C0.131133 17.1163 0 17.2475 0 17.4093C0 17.5711 0.131133 17.7023 0.292969 17.7023H15.0484C15.2102 17.7023 15.3413 17.5711 15.3413 17.4093C15.3413 17.2475 15.2102 17.1163 15.0484 17.1163H11.803C11.7719 17.1164 11.7411 17.1102 11.7125 17.0982C11.6838 17.0862 11.6578 17.0686 11.636 17.0465C11.6142 17.0244 11.597 16.9981 11.5854 16.9693C11.5739 16.9405 11.5681 16.9096 11.5686 16.8785C11.5704 16.7501 11.6896 16.6329 11.8287 16.649C12.0519 16.6749 12.2522 16.5281 12.2942 16.3076C12.3442 16.046 12.5739 15.8564 12.8402 15.8564C13.036 15.8564 13.2228 15.9617 13.3233 16.1382C13.4197 16.3075 13.616 16.3938 13.8011 16.3532C13.8437 16.3439 13.9418 16.3007 14.0766 16.3442C14.4191 16.4547 14.4846 16.1467 14.8149 16.2123C15.045 16.2582 15.2664 16.1022 15.2973 15.8715C15.3576 15.4203 15.7465 15.08 16.202 15.08C16.5309 15.08 16.8358 15.2588 16.9977 15.5465C17.0917 15.7135 17.2709 15.8092 17.4534 15.8011C17.4962 15.7992 17.5386 15.7916 17.5794 15.7785C17.927 15.667 18.2883 15.8518 18.4212 16.1727C18.464 16.2762 18.5436 16.3602 18.6447 16.4084C18.7459 16.4566 18.8613 16.4656 18.9686 16.4336C19.1885 16.3686 19.405 16.5365 19.4137 16.7533C19.4158 16.8003 19.4082 16.8471 19.3916 16.8911C19.3751 16.9351 19.3497 16.9752 19.3172 17.0092C19.2847 17.0431 19.2456 17.0701 19.2024 17.0885C19.1591 17.1069 19.1126 17.1164 19.0656 17.1163H16.4157C16.2538 17.1163 16.1227 17.2475 16.1227 17.4093C16.1227 17.5711 16.2538 17.7023 16.4157 17.7023H19.0656C19.5959 17.7023 20.0205 17.2626 19.9992 16.7299ZM13.4245 6.76709C13.4839 6.64822 13.6532 6.64869 13.7124 6.76709L15.0073 9.35689L13.9746 10.412C13.9626 10.4243 13.9463 10.4315 13.9291 10.4322C13.9119 10.433 13.895 10.4272 13.8819 10.416L13.2561 9.87744C12.9767 9.63693 12.5542 9.67467 12.3218 9.96123L11.9863 10.3751C11.9805 10.3823 11.9732 10.3883 11.965 10.3926C11.9567 10.3969 11.9477 10.3994 11.9385 10.4001C11.9292 10.4007 11.9199 10.3995 11.9112 10.3964C11.9024 10.3933 11.8944 10.3884 11.8876 10.3821L11.7025 10.211L13.4245 6.76709ZM3.35406 12.8209L4.15375 14.4203L3.7284 14.8549L3.25945 14.4513C3.05035 14.2714 2.75668 14.274 2.55387 14.4211L3.35406 12.8209ZM1.20637 17.1163L2.06219 15.4047C2.48207 15.5098 2.67023 15.1772 2.88988 14.9063L3.3577 15.3089C3.58504 15.5045 3.92723 15.4895 4.13668 15.2755L4.43102 14.9748L5.50184 17.1163H1.20637ZM7.59473 17.1163H6.15695L4.18715 13.1767L6.5866 8.37791C6.62109 8.30896 6.71867 8.30893 6.75316 8.37795C7.02699 8.92561 7.80832 8.92502 8.08191 8.37795L9.44375 5.65416C9.47824 5.58522 9.57578 5.58522 9.61027 5.65416L11.4681 9.36975C11.3021 9.70162 7.915 16.4758 7.59473 17.1163ZM17.7548 15.1604C17.6598 15.1629 17.5653 15.176 17.4731 15.1996C17.1991 14.7613 16.7176 14.494 16.202 14.494C15.5145 14.494 14.9193 14.9662 14.7509 15.6181C14.5537 15.6136 14.3594 15.6656 14.1908 15.7678C14.0544 15.7342 13.9123 15.7303 13.7742 15.7563C13.5617 15.4542 13.2129 15.2704 12.8402 15.2704C12.3398 15.2704 11.9027 15.5965 11.753 16.0631C11.332 16.0887 10.9889 16.4372 10.9827 16.8702V16.8702C10.9816 16.9506 10.9945 17.041 11.0164 17.1163H8.24992L11.4297 10.7567L11.4898 10.8123H11.4898C11.7668 11.0685 12.2038 11.0373 12.4416 10.7441L12.7771 10.3303C12.7828 10.3232 12.7898 10.3173 12.7978 10.3131C12.8058 10.3088 12.8146 10.3062 12.8237 10.3053C12.8327 10.3045 12.8418 10.3055 12.8505 10.3083C12.8591 10.3111 12.8671 10.3156 12.874 10.3215L13.4998 10.8601C13.7605 11.0843 14.153 11.0675 14.3935 10.8218L15.2846 9.91135L17.9119 15.166C17.8597 15.1609 17.8073 15.1591 17.7548 15.1604ZM5.38394 5.18428C6.03398 5.18428 6.62742 4.82721 6.93269 4.25248C6.96778 4.18398 6.9745 4.10443 6.95142 4.03101C6.92834 3.9576 6.87731 3.8962 6.80934 3.8601C6.74138 3.824 6.66193 3.81608 6.58818 3.83805C6.51442 3.86003 6.45227 3.91014 6.41516 3.97756C6.21184 4.36045 5.81668 4.59826 5.38394 4.59826C4.74051 4.59826 4.21703 4.07478 4.21703 3.43135C4.21703 2.78791 4.74051 2.26443 5.38394 2.26443C5.81668 2.26443 6.2118 2.50225 6.41516 2.88514C6.43321 2.91912 6.45778 2.94921 6.48746 2.9737C6.51714 2.99819 6.55135 3.01659 6.58815 3.02785C6.62494 3.03912 6.66359 3.04302 6.7019 3.03935C6.7402 3.03568 6.7774 3.0245 6.81139 3.00645C6.84537 2.98839 6.87546 2.96383 6.89995 2.93414C6.92444 2.90446 6.94284 2.87025 6.9541 2.83345C6.96537 2.79666 6.96927 2.75801 6.9656 2.71971C6.96193 2.6814 6.95075 2.6442 6.93269 2.61021C6.62746 2.03545 6.03398 1.67842 5.38394 1.67842C4.41742 1.67842 3.63105 2.46475 3.63105 3.43131C3.63105 4.39787 4.41742 5.18428 5.38394 5.18428Z" fill="#231F20"/>
</svg>
